<svg width="101" height="101" viewBox="0 0 101 101" fill="none" xmlns="http://www.w3.org/2000/svg">
<path d="M50.79 48.79C42.3824 48.798 34.3214 52.1414 28.3764 58.0865C22.4313 64.0315 19.0879 72.0925 19.08 80.5C19.08 80.8979 19.238 81.2794 19.5193 81.5607C19.8006 81.842 20.1821 82 20.58 82H81C81.3978 82 81.7793 81.842 82.0606 81.5607C82.3419 81.2794 82.5 80.8979 82.5 80.5C82.4894 72.0933 79.1451 64.0339 73.2006 58.0894C67.2561 52.1449 59.1967 48.8006 50.79 48.79ZM22.12 79C22.5079 71.6582 25.6977 64.7449 31.0318 59.6852C36.3659 54.6256 43.4379 51.805 50.79 51.805C58.1421 51.805 65.214 54.6256 70.5481 59.6852C75.8822 64.7449 79.072 71.6582 79.46 79H22.12Z" fill="white"/>
<path d="M50.2601 45.67C55.1181 45.6647 59.7758 43.7332 63.212 40.299C66.6481 36.8647 68.5821 32.2081 68.5901 27.35C68.5901 26.89 68.5901 26.45 68.5201 26H75.5201C75.9179 26 76.2994 25.842 76.5807 25.5607C76.862 25.2794 77.0201 24.8978 77.0201 24.5C77.0201 24.1022 76.862 23.7206 76.5807 23.4393C76.2994 23.158 75.9179 23 75.5201 23H68.0001C67.1819 19.6629 65.4412 16.6233 62.9771 14.2288C60.5129 11.8343 57.4248 10.1814 54.0656 9.45914C50.7064 8.73689 47.2117 8.97441 43.9812 10.1445C40.7506 11.3147 37.9145 13.3702 35.797 16.0761C33.6795 18.7821 32.3661 22.0292 32.007 25.4463C31.6479 28.8635 32.2575 32.3127 33.7662 35.3997C35.2749 38.4867 37.6218 41.087 40.5385 42.9031C43.4552 44.7193 46.8241 45.6781 50.2601 45.67ZM50.2601 12.02C53.5728 12.0146 56.7984 13.081 59.4551 15.06C62.1118 17.039 64.057 19.8243 65.0001 23H35.5701C36.5071 19.8288 38.4433 17.045 41.0902 15.0629C43.7371 13.0809 46.9533 12.0066 50.2601 12V12.02ZM35.0001 26H65.5201C65.5201 26.44 65.5901 26.89 65.5901 27.35C65.488 31.3467 63.8286 35.1453 60.9657 37.936C58.1028 40.7267 54.263 42.2885 50.2651 42.2885C46.2671 42.2885 42.4273 40.7267 39.5644 37.936C36.7016 35.1453 35.0422 31.3467 34.9401 27.35C34.9401 26.89 34.9601 26.44 35.0001 26Z" fill="white"/>
<path d="M63.5 61C62.2144 61 60.9577 61.3812 59.8888 62.0954C58.8199 62.8097 57.9868 63.8248 57.4948 65.0126C57.0028 66.2003 56.8741 67.5072 57.1249 68.7681C57.3757 70.029 57.9948 71.1872 58.9038 72.0962C59.8128 73.0052 60.971 73.6243 62.2319 73.8751C63.4928 74.1259 64.7997 73.9972 65.9874 73.5052C67.1752 73.0132 68.1903 72.1801 68.9046 71.1112C69.6188 70.0423 70 68.7856 70 67.5C69.9974 65.7769 69.3117 64.1251 68.0933 62.9067C66.8749 61.6883 65.2231 61.0026 63.5 61ZM63.5 71C62.8078 71 62.1311 70.7947 61.5555 70.4101C60.9799 70.0256 60.5313 69.4789 60.2664 68.8394C60.0015 68.1999 59.9322 67.4961 60.0673 66.8172C60.2023 66.1383 60.5356 65.5146 61.0251 65.0251C61.5146 64.5356 62.1383 64.2023 62.8172 64.0673C63.4961 63.9322 64.1999 64.0015 64.8394 64.2664C65.4789 64.5313 66.0256 64.9799 66.4101 65.5555C66.7947 66.1311 67 66.8078 67 67.5C67 68.4283 66.6313 69.3185 65.9749 69.9749C65.3185 70.6313 64.4283 71 63.5 71Z" fill="white"/>
</svg>
