<svg width="101" height="101" viewBox="0 0 101 101" fill="none" xmlns="http://www.w3.org/2000/svg">
<path d="M71.15 18C64.251 18 57.914 21.169 53.747 26.699C53.19 27.287 53.2 28.215 53.776 28.79L64.379 39.393L49.439 54.332C49.158 54.613 49 54.995 49 55.393C49 55.791 49.158 56.172 49.439 56.454L58.378 65.393L43.439 80.332C43.156 80.614 42.998 80.998 43 81.397C43.002 81.796 43.162 82.179 43.446 82.459C47.57 86.53 50.382 89.5 50.41 89.53C50.687 89.823 51.071 89.992 51.474 89.999C51.483 89.999 51.491 89.999 51.499 89.999C51.894 89.999 52.272 89.844 52.554 89.566C52.817 89.306 78.928 63.502 87.311 54.655C90.979 50.784 93 45.555 93 39.932C93 27.839 83.198 18 71.15 18ZM85.134 52.593C77.762 60.373 56.569 81.375 51.529 86.363C50.502 85.298 48.784 83.536 46.627 81.388L61.562 66.453C62.148 65.867 62.148 64.918 61.562 64.332L52.623 55.393L67.562 40.454C67.842 40.172 68 39.791 68 39.393C68 38.995 67.842 38.614 67.561 38.332L56.85 27.622C60.434 23.398 65.58 21 71.15 21C81.544 21 90 29.493 90 39.932C90 44.785 88.271 49.281 85.134 52.593Z" fill="white"/>
<path d="M51 65.393C51 64.996 50.842 64.614 50.561 64.332L41.622 55.393L56.561 40.454C57.141 39.874 57.148 38.935 56.575 38.347C56.399 38.167 55.275 37.035 53.957 35.707C52.094 33.831 49.541 31.262 49.3 31.007C48.771 30.449 48.255 29.9 47.75 29.361C42.284 23.533 37.565 18.5 28.85 18.5C16.802 18.5 7 28.088 7 39.874C7 45.342 8.992 50.408 12.608 54.138C15.867 57.499 20.775 62.005 25.972 66.775C29.852 70.337 33.864 74.019 37.461 77.474C37.752 77.753 38.126 77.892 38.5 77.892C38.884 77.892 39.268 77.746 39.561 77.453L50.561 66.454C50.842 66.172 51 65.79 51 65.393ZM38.477 74.294C35.14 71.117 31.516 67.791 28 64.564C22.837 59.825 17.959 55.348 14.762 52.049C11.691 48.882 10 44.559 10 39.874C10 29.743 18.456 21.5 28.85 21.5C36.266 21.5 40.164 25.658 45.56 31.412C46.07 31.955 46.589 32.509 47.122 33.071C47.368 33.33 49.311 35.288 51.827 37.821C52.405 38.403 52.945 38.946 53.384 39.388L38.439 54.332C38.158 54.613 38 54.995 38 55.393C38 55.791 38.158 56.172 38.439 56.454L47.378 65.393L38.477 74.294Z" fill="white"/>
<path d="M29 26.392C21.556 26.392 15.5 32.448 15.5 39.892C15.5 40.721 16.171 41.392 17 41.392C17.829 41.392 18.5 40.721 18.5 39.892C18.5 34.102 23.21 29.392 29 29.392C29.829 29.392 30.5 28.721 30.5 27.892C30.5 27.063 29.829 26.392 29 26.392Z" fill="white"/>
</svg>
