<svg width="101" height="101" viewBox="0 0 101 101" fill="none" xmlns="http://www.w3.org/2000/svg">
<path d="M90.5069 6.10503C89.7629 5.30303 88.7879 4.79203 87.7609 4.66303C86.6459 4.52603 85.5709 4.85902 84.7959 5.57902C84.6869 5.68102 84.5969 5.79702 84.5269 5.92402L63.7189 25.249L51.5829 24.403C51.1719 24.376 50.7609 24.518 50.4569 24.801L46.7259 28.274L41.2269 33.373C40.6199 33.936 40.5839 34.886 41.1469 35.493C41.4429 35.812 41.8449 35.973 42.2479 35.973C42.6129 35.973 42.9779 35.841 43.2679 35.573L47.6679 31.493L51.2049 35.305L46.7259 39.463C46.1189 40.026 46.0829 40.976 46.6469 41.583C46.9419 41.901 47.3439 42.062 47.7469 42.062C48.1119 42.062 48.4779 41.929 48.7669 41.661L53.2459 37.503L56.9299 41.473L52.1209 45.93C51.5139 46.493 51.4769 47.442 52.0399 48.05C52.3359 48.369 52.7379 48.53 53.1409 48.53C53.5059 48.53 53.8709 48.398 54.1609 48.13L58.9709 43.672L62.0119 46.949L57.6139 51.023C57.0069 51.586 56.9699 52.536 57.5329 53.143C57.8289 53.462 58.2299 53.623 58.6339 53.623C58.9989 53.623 59.3639 53.491 59.6539 53.224L65.1529 48.13L65.1539 48.129L65.1569 48.127L68.8939 44.645C69.1969 44.363 69.3699 43.969 69.3719 43.556L69.4389 31.39L90.1999 12.115C90.3479 12.049 90.4869 11.958 90.6089 11.845C91.3889 11.125 91.8029 10.07 91.7459 8.95002C91.6889 7.91902 91.2509 6.90903 90.5069 6.10503ZM88.7049 9.43302C88.6379 9.47802 88.5729 9.52802 88.5139 9.58402L66.9089 29.644C66.5559 29.971 66.3859 30.444 66.4389 30.915L66.3729 42.892L64.2089 44.908L49.8639 29.451L52.0229 27.441L64.1579 28.287C64.5779 28.313 64.9789 28.171 65.2829 27.89L86.8829 7.83102C86.9389 7.77902 86.9889 7.72402 87.0339 7.66502C87.1559 7.62702 87.2839 7.62902 87.3889 7.64102C87.7119 7.68202 88.0459 7.86603 88.3059 8.14503C88.5689 8.42903 88.7289 8.77902 88.7449 9.10602C88.7509 9.20202 88.7449 9.32102 88.7049 9.43302Z" fill="white"/>
<path d="M61.4959 69.458C61.4959 68.048 61.0669 66.708 60.2549 65.577L56.0939 59.038C55.8189 58.605 55.3409 58.344 54.8279 58.344C54.3149 58.344 53.8369 58.607 53.5619 59.039L49.4269 65.546C49.4219 65.554 49.4159 65.562 49.4099 65.569C48.5909 66.709 48.1589 68.053 48.1589 69.458C48.1589 73.136 51.1539 76.127 54.8349 76.127C58.5079 76.127 61.4959 73.136 61.4959 69.458ZM51.1589 69.458C51.1589 68.86 51.3019 68.281 51.5749 67.76L54.8289 62.639L57.6829 67.124C57.6979 67.149 57.7129 67.176 57.7299 67.201L58.0709 67.733C58.3509 68.256 58.4969 68.844 58.4969 69.458C58.4969 71.481 56.8539 73.127 54.8359 73.127C52.8089 73.127 51.1589 71.481 51.1589 69.458Z" fill="white"/>
<path d="M73.473 33.2611C72.694 33.5421 72.289 34.4011 72.57 35.1801C75.053 42.0851 75.83 49.1201 74.647 54.0001C73.623 58.2341 71.377 61.2141 69.206 64.0951C66.615 67.5331 63.936 71.0861 63.936 76.3561V91.9661H36.856V83.6861C36.856 83.2311 36.649 82.8011 36.294 82.5171C35.94 82.2321 35.476 82.1211 35.03 82.2221C34.945 82.2411 26.45 84.0571 21.927 80.0371C16.969 75.6291 18.078 64.3991 18.09 64.2871C18.161 63.6071 17.764 62.9651 17.124 62.7251L12.356 60.9391L21.3 50.4311C21.626 50.0481 21.738 49.5281 21.6 49.0451C21.585 48.9921 20.221 44.1241 20.82 38.4791C24.172 40.1401 28.277 41.1681 32.918 41.4201C33.337 41.4431 34.396 41.6051 35.151 42.6121C36.054 43.8151 36.22 45.7851 35.633 48.3081C34.035 55.1421 38.959 56.4791 42.216 57.3641C42.76 57.5121 43.305 57.6601 43.831 57.8281C43.983 57.8771 44.137 57.8991 44.289 57.8991C44.924 57.8991 45.514 57.4931 45.717 56.8561C45.969 56.0671 45.534 55.2231 44.745 54.9701C44.178 54.7881 43.589 54.6281 43.002 54.4691C39.267 53.4541 37.653 52.8431 38.554 48.9901C39.559 44.6751 38.563 42.1601 37.55 40.8111C36.484 39.3911 34.855 38.5211 33.08 38.4251C24.049 37.9331 17.367 34.3451 15.204 28.8251C13.877 25.4471 14.163 20.3161 14.493 17.3211C18.723 19.9221 29.2 24.3131 46.848 19.2651C52.002 17.7901 57.761 17.9461 62.249 19.6811C63.022 19.9801 63.89 19.5961 64.189 18.8231C64.488 18.0511 64.103 17.1821 63.331 16.8841C58.179 14.8931 51.871 14.7091 46.022 16.3821C24.501 22.5401 14.463 13.6391 14.369 13.5531C13.968 13.1781 13.393 13.0531 12.874 13.2251C12.353 13.3971 11.968 13.8411 11.87 14.3811C11.798 14.7771 10.137 24.1311 12.411 29.9231C13.479 32.6491 15.411 34.9711 18.011 36.8111C17.164 42.2491 18.078 47.1941 18.514 49.0771L8.68798 60.6221C8.37098 60.9951 8.25498 61.4981 8.37798 61.9711C8.50098 62.4451 8.84598 62.8281 9.30398 62.9991L15.021 65.1411C14.846 68.4361 14.846 77.7561 19.935 82.2801C24.197 86.0671 30.704 85.8391 33.856 85.4491V93.4671C33.856 94.2951 34.527 94.9671 35.356 94.9671H65.437C66.265 94.9671 66.937 94.2951 66.937 93.4671V76.3571C66.937 72.0911 69.099 69.2231 71.603 65.9021C73.848 62.9231 76.393 59.5461 77.564 54.7081C79.46 46.8851 76.676 37.7371 75.392 34.1671C75.111 33.3841 74.251 32.9821 73.473 33.2611Z" fill="white"/>
</svg>
