<svg width="101" height="101" viewBox="0 0 101 101" fill="none" xmlns="http://www.w3.org/2000/svg">
<path d="M94.376 47.761C93.769 47.199 92.82 47.234 92.256 47.84L79.709 61.353C77.969 60.172 75.902 59.574 73.76 59.672C71.225 59.784 68.871 60.841 67.081 62.642C67.051 62.662 67.016 62.668 66.987 62.691L49.7 75.901C49.348 76.169 49.134 76.579 49.113 77.02C49.092 77.462 49.266 77.891 49.591 78.192L55.952 84.098L60.756 88.558L60.757 88.56L60.759 88.561L67.348 94.679C67.627 94.938 67.992 95.079 68.369 95.079C68.429 95.079 68.489 95.075 68.549 95.068C68.987 95.015 69.38 94.772 69.622 94.403L81.574 76.24C81.648 76.128 81.686 76.005 81.727 75.883C84.733 72.225 84.76 67.007 81.907 63.396L94.455 49.881C95.019 49.274 94.984 48.326 94.376 47.761ZM73.893 62.668C75.739 62.603 77.506 63.23 78.853 64.48C81.267 66.722 81.68 70.334 80.034 73.102L70.167 63.94C71.258 63.175 72.539 62.729 73.893 62.668ZM68.091 91.274L63.898 87.381L70.571 80.195C71.135 79.588 71.1 78.639 70.492 78.075C69.885 77.513 68.935 77.548 68.372 78.154L61.699 85.34L59.092 82.919L65.765 75.732C66.329 75.125 66.294 74.176 65.686 73.612C65.079 73.05 64.13 73.084 63.566 73.691L56.893 80.878L52.935 77.203L67.804 65.842L78.369 75.652L68.091 91.274Z" fill="white"/>
<path d="M44.172 62.786C42.874 62.786 41.821 63.838 41.821 65.137C41.821 66.435 42.873 67.488 44.172 67.488C45.47 67.488 46.523 66.436 46.523 65.137C46.523 63.839 45.471 62.786 44.172 62.786Z" fill="white"/>
<path d="M53.1779 92.038C51.8799 92.038 50.8269 93.09 50.8269 94.389C50.8269 95.687 51.8789 96.739 53.1779 96.739C54.4759 96.739 55.5289 95.687 55.5289 94.389C55.5279 93.091 54.4759 92.038 53.1779 92.038Z" fill="white"/>
<path d="M89.5561 90.812C88.2581 90.812 87.2051 91.865 87.2051 93.163C87.2051 94.461 88.2571 95.514 89.5561 95.514C90.8541 95.514 91.9071 94.462 91.9071 93.163C91.9061 91.864 90.8541 90.812 89.5561 90.812Z" fill="white"/>
<path d="M38.427 39.688C48.374 39.688 56.467 31.596 56.467 21.651C56.467 11.706 48.374 3.61499 38.427 3.61499C28.484 3.61499 20.394 11.706 20.394 21.651C20.394 31.596 28.484 39.688 38.427 39.688ZM38.427 6.61499C46.72 6.61499 53.467 13.36 53.467 21.651C53.467 29.942 46.72 36.688 38.427 36.688C30.138 36.688 23.394 29.942 23.394 21.651C23.394 13.36 30.138 6.61499 38.427 6.61499Z" fill="white"/>
<path d="M39.934 47.629C47.268 47.629 54.306 50.33 59.75 55.235C60.366 55.792 61.315 55.742 61.868 55.125C62.423 54.51 62.373 53.562 61.758 53.007C55.762 47.605 48.011 44.629 39.934 44.629C21.953 44.629 7.323 59.258 7.323 77.239C7.323 78.067 7.994 78.739 8.823 78.739H37.823C38.652 78.739 39.323 78.067 39.323 77.239C39.323 76.411 38.652 75.739 37.823 75.739H10.361C11.145 60.107 24.11 47.629 39.934 47.629Z" fill="white"/>
</svg>
