<svg width="24" height="24" viewBox="0 0 24 24" fill="none" xmlns="http://www.w3.org/2000/svg">
<path d="M14.8487 12.0004L23.7626 3.0871C24.0791 2.77057 24.0791 2.25835 23.7626 1.94193L22.059 0.237724C21.9073 0.0861016 21.7014 0.000732422 21.4865 0.000732422C21.2716 0.000732422 21.0657 0.0861016 20.9139 0.237724L12 9.15175L3.08609 0.237724C2.93436 0.0861016 2.72847 0.000732422 2.51351 0.000732422C2.2986 0.000732422 2.09265 0.0861016 1.94098 0.237724L0.237396 1.94193C-0.0791319 2.25835 -0.0791319 2.77057 0.237396 3.0871L9.15132 12.0005L0.238281 20.9128C-0.0780902 21.2293 -0.0780902 21.7415 0.238281 22.058L1.94197 23.7622C2.09359 23.9138 2.29954 23.9992 2.5145 23.9992C2.72946 23.9992 2.93535 23.9138 3.08713 23.7622L12 14.8492L20.9128 23.7622C21.0646 23.9138 21.2705 23.9992 21.4854 23.9992C21.7004 23.9992 21.9063 23.9138 22.058 23.7622L23.7616 22.058C24.078 21.7415 24.078 21.2293 23.7616 20.9128L14.8487 12.0004Z" fill="#666666"/>
</svg>
