<svg width="101" height="101" viewBox="0 0 101 101" fill="none" xmlns="http://www.w3.org/2000/svg">
<path d="M61.37 78H11.6C11.2022 78 10.8206 77.8419 10.5393 77.5606C10.258 77.2793 10.1 76.8978 10.1 76.5C10.1 61.66 21.94 49.58 36.49 49.58C51.04 49.58 62.87 61.66 62.87 76.5C62.87 76.8978 62.7119 77.2793 62.4306 77.5606C62.1493 77.8419 61.7678 78 61.37 78ZM13.14 75H59.82C59.5077 68.9964 56.9209 63.3371 52.5854 59.1725C48.25 55.0079 42.4912 52.6506 36.48 52.58C30.4687 52.6506 24.71 55.0079 20.3745 59.1725C16.039 63.3371 13.4522 68.9964 13.14 75Z" fill="white"/>
<path d="M36.5 45C33.2366 45 30.0465 44.0323 27.3331 42.2193C24.6197 40.4062 22.5048 37.8293 21.256 34.8143C20.0071 31.7993 19.6804 28.4817 20.3171 25.281C20.9537 22.0803 22.5252 19.1403 24.8327 16.8327C27.1403 14.5252 30.0803 12.9537 33.281 12.3171C36.4817 11.6804 39.7993 12.0071 42.8143 13.256C45.8293 14.5048 48.4062 16.6197 50.2193 19.3331C52.0323 22.0465 53 25.2366 53 28.5C52.9947 32.8745 51.2546 37.0682 48.1614 40.1614C45.0682 43.2546 40.8745 44.9947 36.5 45ZM36.5 15C33.83 15 31.2199 15.7918 28.9998 17.2752C26.7797 18.7586 25.0494 20.867 24.0276 23.3338C23.0059 25.8006 22.7385 28.515 23.2594 31.1337C23.7803 33.7525 25.0661 36.1579 26.9541 38.0459C28.8421 39.934 31.2475 41.2197 33.8663 41.7406C36.485 42.2615 39.1994 41.9942 41.6662 40.9724C44.133 39.9506 46.2414 38.2203 47.7248 36.0002C49.2082 33.7801 50 31.1701 50 28.5C49.9947 24.9212 48.5707 21.4905 46.0401 18.9599C43.5095 16.4293 40.0788 15.0053 36.5 15Z" fill="white"/>
<path d="M36.48 62.0699C31.1776 62.0736 25.9745 60.632 21.43 57.8999C21.0892 57.6917 20.8451 57.3567 20.7513 56.9685C20.6576 56.5803 20.7218 56.1707 20.93 55.8299C21.1382 55.4891 21.4733 55.245 21.8615 55.1512C22.2497 55.0575 22.6592 55.1217 23 55.3299C27.0781 57.7767 31.7443 59.0691 36.5 59.0691C41.2557 59.0691 45.922 57.7767 50 55.3299C50.3408 55.1244 50.7493 55.0627 51.1357 55.1583C51.522 55.2539 51.8545 55.4991 52.06 55.8399C52.2656 56.1807 52.3273 56.5892 52.2317 56.9756C52.136 57.3619 51.8908 57.6944 51.55 57.8999C46.9998 60.6355 41.7893 62.0773 36.48 62.0699Z" fill="white"/>
<path d="M49.49 26.38C47.8899 26.4328 46.2956 26.1604 44.8037 25.5795C43.3118 24.9985 41.9532 24.121 40.81 23C37.81 24.68 29.37 28.4 22.54 23.09C22.3844 22.9692 22.2541 22.8189 22.1566 22.6477C22.0591 22.4766 21.9962 22.2879 21.9716 22.0924C21.947 21.8969 21.9611 21.6985 22.0132 21.5085C22.0652 21.3185 22.1542 21.1406 22.275 20.985C22.3959 20.8294 22.5461 20.6991 22.7173 20.6016C22.8885 20.504 23.0772 20.4412 23.2727 20.4166C23.4681 20.3919 23.6665 20.4061 23.8565 20.4581C24.0465 20.5102 24.2244 20.5992 24.38 20.72C31 25.87 40.21 19.87 40.31 19.81C40.4767 19.6992 40.6639 19.6228 40.8605 19.5855C41.0571 19.5481 41.2592 19.5504 41.4549 19.5924C41.6506 19.6343 41.8359 19.715 42 19.8296C42.164 19.9443 42.3034 20.0906 42.41 20.26C42.49 20.38 44.56 23.43 49.49 23.43C49.8879 23.43 50.2694 23.588 50.5507 23.8693C50.832 24.1507 50.99 24.5322 50.99 24.93C50.99 25.3278 50.832 25.7094 50.5507 25.9907C50.2694 26.272 49.8879 26.43 49.49 26.43V26.38Z" fill="white"/>
<path d="M92.5 63H64.5C64.1022 63 63.7207 62.842 63.4394 62.5607C63.1581 62.2794 63 61.8978 63 61.5C63 61.1022 63.1581 60.7206 63.4394 60.4393C63.7207 60.158 64.1022 60 64.5 60H90.93C90.6086 55.9799 88.7965 52.2251 85.8493 49.4722C82.9022 46.7193 79.0327 45.167 75 45.12C72.0096 45.1216 69.0803 45.967 66.5489 47.5591C64.0175 49.1512 61.9867 51.4253 60.69 54.12C60.6247 54.3231 60.5168 54.51 60.3734 54.6681C60.2301 54.8262 60.0547 54.9519 59.859 55.0368C59.6632 55.1217 59.4516 55.1639 59.2382 55.1605C59.0248 55.1571 58.8147 55.1082 58.6217 55.0171C58.4287 54.926 58.2574 54.7948 58.1192 54.6322C57.981 54.4696 57.8791 54.2794 57.8202 54.0743C57.7614 53.8692 57.747 53.6539 57.778 53.4427C57.809 53.2316 57.8847 53.0295 58 52.85C59.5344 49.6411 61.9444 46.9312 64.9522 45.0327C67.96 43.1342 71.4432 42.1245 75 42.12C80.0879 42.1754 84.946 44.2471 88.5081 47.8805C92.0702 51.5138 94.0454 56.412 94 61.5C94 61.8978 93.842 62.2794 93.5607 62.5607C93.2794 62.842 92.8979 63 92.5 63Z" fill="white"/>
<path d="M75 39C72.4288 39 69.9154 38.2376 67.7776 36.8091C65.6398 35.3807 63.9735 33.3503 62.9896 30.9749C62.0056 28.5995 61.7482 25.9856 62.2498 23.4638C62.7514 20.9421 63.9895 18.6257 65.8076 16.8076C67.6257 14.9895 69.9421 13.7514 72.4638 13.2498C74.9856 12.7482 77.5995 13.0056 79.9749 13.9896C82.3503 14.9735 84.3807 16.6398 85.8091 18.7776C87.2376 20.9154 88 23.4288 88 26C88 27.7072 87.6638 29.3977 87.0104 30.9749C86.3571 32.5521 85.3996 33.9852 84.1924 35.1924C82.9852 36.3996 81.5521 37.3571 79.9749 38.0104C78.3977 38.6638 76.7072 39 75 39ZM75 16C73.0222 16 71.0888 16.5865 69.4443 17.6853C67.7998 18.7841 66.5181 20.3459 65.7612 22.1732C65.0043 24.0004 64.8063 26.0111 65.1922 27.9509C65.578 29.8907 66.5304 31.6725 67.9289 33.0711C69.3275 34.4696 71.1093 35.422 73.0491 35.8079C74.9889 36.1937 76.9996 35.9957 78.8268 35.2388C80.6541 34.4819 82.2159 33.2002 83.3147 31.5557C84.4135 29.9112 85 27.9778 85 26C85 23.3478 83.9464 20.8043 82.0711 18.9289C80.1957 17.0536 77.6522 16 75 16Z" fill="white"/>
<path d="M82.7399 27.4C79.6569 27.375 76.683 26.2551 74.3494 24.2402C72.0157 22.2252 70.4742 19.4465 69.9999 16.4C69.9416 16.0022 70.0437 15.5975 70.2837 15.2749C70.5238 14.9523 70.8821 14.7383 71.2799 14.68C71.6778 14.6216 72.0825 14.7237 72.405 14.9638C72.7276 15.2038 72.9416 15.5622 72.9999 15.96C73.2168 17.3948 73.7458 18.7645 74.5496 19.9725C75.3534 21.1806 76.4125 22.1976 77.6521 22.9519C78.8917 23.7062 80.2817 24.1793 81.7241 24.3379C83.1664 24.4966 84.626 24.3368 85.9999 23.87C86.1864 23.8043 86.384 23.776 86.5814 23.7867C86.7788 23.7974 86.9722 23.8469 87.1505 23.9324C87.3288 24.0178 87.4885 24.1375 87.6205 24.2846C87.7525 24.4318 87.8543 24.6035 87.9199 24.79C87.9856 24.9765 88.0139 25.1741 88.0032 25.3715C87.9925 25.5689 87.943 25.7622 87.8576 25.9405C87.7722 26.1188 87.6524 26.2785 87.5053 26.4106C87.3581 26.5426 87.1864 26.6443 86.9999 26.71C85.6289 27.1779 84.1886 27.4112 82.7399 27.4Z" fill="white"/>
<path d="M89.5 52C89.2214 52 88.9484 51.9224 88.7114 51.776C88.4744 51.6295 88.2829 51.42 88.1584 51.1708C88.0338 50.9217 87.981 50.6427 88.0061 50.3653C88.0311 50.0878 88.1329 49.8229 88.3 49.6C91.48 45.37 89.75 41.29 87.75 36.6C86.4 33.4 85 30.12 85 26.5C85 26.1022 85.158 25.7206 85.4393 25.4393C85.7206 25.158 86.1022 25 86.5 25C86.8978 25 87.2794 25.158 87.5607 25.4393C87.842 25.7206 88 26.1022 88 26.5C88 29.5 89.27 32.5 90.51 35.41C92.68 40.51 94.92 45.78 90.7 51.41C90.5592 51.5945 90.3776 51.7437 90.1694 51.8461C89.9612 51.9485 89.732 52.0012 89.5 52Z" fill="white"/>
<path d="M60.56 52C60.3272 52 60.0975 51.9458 59.8892 51.8416C59.6809 51.7375 59.4998 51.5863 59.36 51.4C55.15 45.78 57.36 40.51 59.55 35.4C60.78 32.5 62.06 29.5 62.06 26.49C62.06 26.0922 62.2181 25.7106 62.4994 25.4293C62.7807 25.148 63.1622 24.99 63.56 24.99C63.9579 24.99 64.3394 25.148 64.6207 25.4293C64.902 25.7106 65.06 26.0922 65.06 26.49C65.06 30.11 63.66 33.39 62.31 36.57C60.31 41.28 58.58 45.35 61.76 49.57C61.9272 49.7928 62.029 50.0578 62.054 50.3353C62.079 50.6127 62.0263 50.8917 61.9017 51.1408C61.7771 51.39 61.5856 51.5995 61.3486 51.746C61.1117 51.8924 60.8386 51.97 60.56 51.97V52Z" fill="white"/>
</svg>
