<svg width="101" height="101" viewBox="0 0 101 101" fill="none" xmlns="http://www.w3.org/2000/svg">
<path d="M42 23H41C38.8783 23 36.8434 23.8429 35.3431 25.3431C33.8429 26.8434 33 28.8783 33 31V39C33 41.1217 33.8429 43.1566 35.3431 44.6569C36.8434 46.1571 38.8783 47 41 47H42C44.1217 47 46.1566 46.1571 47.6569 44.6569C49.1571 43.1566 50 41.1217 50 39V31C50 28.8783 49.1571 26.8434 47.6569 25.3431C46.1566 23.8429 44.1217 23 42 23ZM47 39C47 40.3261 46.4732 41.5979 45.5355 42.5355C44.5979 43.4732 43.3261 44 42 44H41C39.6739 44 38.4021 43.4732 37.4645 42.5355C36.5268 41.5979 36 40.3261 36 39V31C36 29.6739 36.5268 28.4021 37.4645 27.4645C38.4021 26.5268 39.6739 26 41 26H42C43.3261 26 44.5979 26.5268 45.5355 27.4645C46.4732 28.4021 47 29.6739 47 31V39Z" fill="white"/>
<path d="M64 23H63C60.8783 23 58.8434 23.8429 57.3431 25.3431C55.8429 26.8434 55 28.8783 55 31V39C55 41.1217 55.8429 43.1566 57.3431 44.6569C58.8434 46.1571 60.8783 47 63 47H64C66.1217 47 68.1566 46.1571 69.6569 44.6569C71.1571 43.1566 72 41.1217 72 39V31C72 28.8783 71.1571 26.8434 69.6569 25.3431C68.1566 23.8429 66.1217 23 64 23ZM69 39C69 40.3261 68.4732 41.5979 67.5355 42.5355C66.5979 43.4732 65.3261 44 64 44H63C61.6739 44 60.4021 43.4732 59.4645 42.5355C58.5268 41.5979 58 40.3261 58 39V31C58 29.6739 58.5268 28.4021 59.4645 27.4645C60.4021 26.5268 61.6739 26 63 26H64C65.3261 26 66.5979 26.5268 67.5355 27.4645C68.4732 28.4021 69 29.6739 69 31V39Z" fill="white"/>
<path d="M56.66 3.67998C52.1726 3.11661 47.6171 3.49252 43.2827 4.78384C38.9484 6.07517 34.9299 8.25369 31.4825 11.1811C28.0351 14.1085 25.2341 17.7207 23.2574 21.7885C21.2806 25.8562 20.1714 30.2906 20 34.81C19.9926 34.8965 19.9926 34.9835 20 35.07C20.018 40.7084 18.9201 46.2947 16.7696 51.507C14.6192 56.7193 11.4586 61.4546 7.47001 65.44C7.26219 65.6479 7.12006 65.9124 7.06129 66.2004C7.00251 66.4885 7.02968 66.7875 7.13942 67.0602C7.24916 67.3329 7.43662 67.5674 7.67852 67.7345C7.92041 67.9016 8.20608 67.9939 8.50001 68L17 68.15V77.54C17.0008 77.7637 17.0517 77.9844 17.1488 78.1859C17.2459 78.3874 17.3869 78.5646 17.5614 78.7046C17.7359 78.8445 17.9395 78.9437 18.1572 78.9948C18.375 79.046 18.6015 79.0477 18.82 79L26 77.43V86.64C26.0051 86.8827 26.069 87.1206 26.1863 87.3331C26.3035 87.5457 26.4706 87.7266 26.6732 87.8604C26.8758 87.9941 27.1079 88.0767 27.3494 88.101C27.591 88.1253 27.8348 88.0907 28.06 88L36 84.85V93.69C36.0069 93.9401 36.0764 94.1846 36.2019 94.4011C36.3275 94.6175 36.5052 94.7992 36.7189 94.9294C36.9327 95.0596 37.1755 95.1343 37.4255 95.1466C37.6754 95.1589 37.9245 95.1085 38.15 95L49 89.82V97.92C49.0002 98.1493 49.0529 98.3754 49.1541 98.5812C49.2553 98.7869 49.4024 98.9667 49.5839 99.1067C49.7655 99.2467 49.9767 99.3432 50.2014 99.3889C50.4261 99.4345 50.6582 99.4281 50.88 99.37C60.6585 96.7927 69.3088 91.051 75.4811 83.0408C81.6534 75.0306 85.0005 65.2024 85 55.09V36.55C85 19.85 72.82 5.71998 56.66 3.67998ZM82 55.09C81.9998 64.2047 79.0897 73.0812 73.6937 80.427C68.2977 87.7728 60.6975 93.2041 52 95.93V87.43C51.9997 87.1764 51.9351 86.9271 51.8123 86.7052C51.6895 86.4834 51.5124 86.2963 51.2977 86.1615C51.0829 86.0267 50.8375 85.9485 50.5843 85.9342C50.3312 85.9199 50.0785 85.9701 49.85 86.08L39 91.3V82.64C38.9998 82.3947 38.9394 82.1533 38.8241 81.9368C38.7089 81.7202 38.5423 81.5353 38.339 81.3981C38.1357 81.2609 37.9019 81.1757 37.6579 81.1499C37.414 81.124 37.1675 81.1584 36.94 81.25L29 84.42V75.57C29.0007 75.3454 28.9509 75.1236 28.8545 74.9209C28.758 74.7181 28.6172 74.5396 28.4425 74.3985C28.2678 74.2575 28.0637 74.1574 27.8452 74.1057C27.6267 74.054 27.3994 74.0521 27.18 74.1L20 75.68V66.68C20.0001 66.2873 19.8462 65.9102 19.5713 65.6298C19.2965 65.3493 18.9226 65.1878 18.53 65.18L11.91 65.06C18.843 57.0298 22.7641 46.8364 23 36.23C23.0056 36.1534 23.0056 36.0765 23 36C23.009 31.7934 23.9124 27.6367 25.6502 23.8059C27.3881 19.975 29.9207 16.5575 33.08 13.78C36.2068 10.9929 39.898 8.91318 43.9018 7.68271C47.9056 6.45223 52.1277 6.09998 56.28 6.64998C70.94 8.50998 82 21.36 82 36.55V55.09Z" fill="white"/>
</svg>
