<svg width="101" height="101" viewBox="0 0 101 101" fill="none" xmlns="http://www.w3.org/2000/svg">
<path d="M66 22.57C66 22.57 66 22.52 66 22.5V17H73.5C73.8978 17 74.2793 16.842 74.5606 16.5607C74.8419 16.2794 75 15.8978 75 15.5C75 15.1022 74.8419 14.7206 74.5606 14.4393C74.2793 14.158 73.8978 14 73.5 14H55.5C55.1021 14 54.7206 14.158 54.4393 14.4393C54.158 14.7206 54 15.1022 54 15.5C54 15.8978 54.158 16.2794 54.4393 16.5607C54.7206 16.842 55.1021 17 55.5 17H63V22.5C63 22.5 63 22.5 63 22.56C54.7026 22.9517 46.8876 26.5735 41.2253 32.6512C35.5631 38.729 32.5029 46.7805 32.6988 55.0848C32.8947 63.3891 36.3312 71.2874 42.2737 77.0914C48.2162 82.8954 56.1933 86.1446 64.5 86.1446C72.8066 86.1446 80.7837 82.8954 86.7262 77.0914C92.6687 71.2874 96.1052 63.3891 96.3011 55.0848C96.497 46.7805 93.4368 38.729 87.7746 32.6512C82.1123 26.5735 74.2973 22.9517 66 22.56V22.57ZM64.3499 83.22C58.644 83.22 53.0661 81.528 48.3218 78.3579C43.5774 75.1878 39.8796 70.6821 37.696 65.4104C35.5124 60.1388 34.9411 54.338 36.0543 48.7416C37.1675 43.1453 39.9152 38.0047 43.9499 33.97C47.9847 29.9352 53.1252 27.1875 58.7216 26.0743C64.3179 24.9612 70.1187 25.5325 75.3904 27.7161C80.662 29.8997 85.1678 33.5974 88.3378 38.3418C91.5079 43.0862 93.1999 48.664 93.1999 54.37C93.192 62.0191 90.1499 69.3526 84.7412 74.7613C79.3325 80.17 71.999 83.2121 64.3499 83.22Z" fill="white"/>
<path d="M57.14 73.94C53.144 72.4552 49.6967 69.7856 47.2591 66.2884C44.8216 62.7911 43.5101 58.6329 43.5 54.37C43.5 53.9722 43.342 53.5906 43.0607 53.3093C42.7794 53.028 42.3978 52.87 42 52.87C41.6022 52.87 41.2206 53.028 40.9393 53.3093C40.658 53.5906 40.5 53.9722 40.5 54.37C40.5123 59.245 42.0126 64.0001 44.8003 67.9994C47.5881 71.9988 51.5303 75.0517 56.1 76.75C56.2658 76.8137 56.4425 76.8442 56.62 76.84C56.9688 76.8358 57.3051 76.7101 57.5713 76.4847C57.8374 76.2593 58.0167 75.9481 58.0782 75.6048C58.1398 75.2615 58.0798 74.9075 57.9086 74.6037C57.7373 74.2998 57.4656 74.0651 57.14 73.94Z" fill="white"/>
<path d="M77.17 70.8101C74.2679 73.0753 70.8175 74.5314 67.17 75.0301C66.973 75.0425 66.7804 75.0937 66.6032 75.1806C66.426 75.2675 66.2676 75.3885 66.1371 75.5366C65.8736 75.8357 65.7398 76.2272 65.765 76.6251C65.7902 77.0229 65.9724 77.3944 66.2715 77.6579C66.5706 77.9214 66.9621 78.0553 67.36 78.0301H67.56C71.737 77.4539 75.6854 75.7765 79 73.1701C79.1615 73.051 79.2976 72.9006 79.4 72.728C79.5024 72.5554 79.5691 72.364 79.5962 72.1651C79.6233 71.9662 79.6102 71.7639 79.5577 71.5702C79.5052 71.3764 79.4143 71.1952 79.2905 71.0372C79.1666 70.8793 79.0123 70.7478 78.8368 70.6505C78.6612 70.5532 78.4679 70.4922 78.2683 70.471C78.0687 70.4498 77.8668 70.4689 77.6747 70.5272C77.4826 70.5854 77.3042 70.6816 77.15 70.8101H77.17Z" fill="white"/>
<path d="M69.33 54.37C69.3265 53.4383 69.0596 52.5265 68.56 51.74L78.89 41.15C79.1523 40.8621 79.2924 40.4836 79.2806 40.0943C79.2688 39.7051 79.106 39.3357 78.8268 39.0642C78.5476 38.7928 78.1737 38.6406 77.7843 38.6398C77.3948 38.639 77.0204 38.7897 76.74 39.06L66.29 49.78C65.3035 49.3495 64.2044 49.2488 63.1561 49.4929C62.1077 49.737 61.1662 50.3129 60.4713 51.135C59.7765 51.9571 59.3655 52.9814 59.2995 54.0558C59.2334 55.1301 59.5158 56.1971 60.1047 57.0981C60.6936 57.9991 61.5575 58.686 62.5681 59.0567C63.5786 59.4274 64.6818 59.4621 65.7136 59.1557C66.7454 58.8492 67.6508 58.2179 68.2952 57.3557C68.9395 56.4935 69.2884 55.4464 69.29 54.37H69.33ZM64.33 56.37C63.9345 56.37 63.5478 56.2527 63.2189 56.033C62.89 55.8132 62.6337 55.5008 62.4823 55.1354C62.3309 54.7699 62.2913 54.3678 62.3685 53.9798C62.4456 53.5919 62.6361 53.2355 62.9158 52.9558C63.1955 52.6761 63.5519 52.4856 63.9399 52.4084C64.3278 52.3313 64.73 52.3709 65.0954 52.5223C65.4609 52.6736 65.7732 52.93 65.993 53.2589C66.2127 53.5878 66.33 53.9744 66.33 54.37C66.3274 54.8953 66.1183 55.3984 65.7478 55.7708C65.3774 56.1431 64.8753 56.3548 64.35 56.36L64.33 56.37Z" fill="white"/>
<path d="M25 55.5C25 55.1022 24.842 54.7206 24.5607 54.4393C24.2794 54.158 23.8978 54 23.5 54H5.5C5.10218 54 4.72064 54.158 4.43934 54.4393C4.15804 54.7206 4 55.1022 4 55.5C4 55.8978 4.15804 56.2794 4.43934 56.5607C4.72064 56.842 5.10218 57 5.5 57H23.5C23.8978 57 24.2794 56.842 24.5607 56.5607C24.842 56.2794 25 55.8978 25 55.5Z" fill="white"/>
<path d="M26.5 68H8.5C8.10218 68 7.72064 68.158 7.43934 68.4393C7.15804 68.7206 7 69.1022 7 69.5C7 69.8978 7.15804 70.2794 7.43934 70.5607C7.72064 70.842 8.10218 71 8.5 71H26.5C26.8978 71 27.2794 70.842 27.5607 70.5607C27.842 70.2794 28 69.8978 28 69.5C28 69.1022 27.842 68.7206 27.5607 68.4393C27.2794 68.158 26.8978 68 26.5 68Z" fill="white"/>
<path d="M26.5 39H8.5C8.10218 39 7.72064 39.158 7.43934 39.4393C7.15804 39.7206 7 40.1022 7 40.5C7 40.8978 7.15804 41.2794 7.43934 41.5607C7.72064 41.842 8.10218 42 8.5 42H26.5C26.8978 42 27.2794 41.842 27.5607 41.5607C27.842 41.2794 28 40.8978 28 40.5C28 40.1022 27.842 39.7206 27.5607 39.4393C27.2794 39.158 26.8978 39 26.5 39Z" fill="white"/>
</svg>
