<svg width="64" height="56" viewBox="0 0 64 56" fill="none" xmlns="http://www.w3.org/2000/svg">
<g clip-path="url(#clip0_16_100)">
<path d="M14.957 0.114461C9.68921 0.949756 5.06814 4.03496 2.45448 8.49436C-1.16962 14.6378 -0.751978 22.1959 3.51881 28.016C3.86909 28.4875 10.1607 34.9004 17.5033 42.2564C27.5942 52.3608 30.9623 55.6616 31.2856 55.7424C31.5551 55.8232 31.9054 55.8232 32.1748 55.7424C32.4981 55.6616 35.9202 52.3069 46.1593 42.0543C57.6648 30.5219 59.8338 28.2989 60.4671 27.3154C61.8143 25.2676 62.7439 22.9908 63.202 20.6196C63.5253 19.0164 63.5118 15.9312 63.202 14.3414C61.9221 7.83421 57.6513 2.90327 51.5213 0.868921C49.3792 0.154879 47.7086 -0.0741536 45.3509 0.0201539C42.5621 0.127934 40.5412 0.626416 38.1701 1.79853C36.4186 2.66077 35.0849 3.64426 33.32 5.35527L31.7302 6.89113L30.0731 5.2879C27.2439 2.52604 24.738 1.13837 21.0869 0.303076C20.0226 0.0605714 16.0886 -0.0606811 14.957 0.114461ZM18.9179 3.21314C21.2351 3.45564 23.3773 4.2101 25.3038 5.44957C25.8697 5.81333 27.2304 7.01238 28.5777 8.33269C31.8245 11.5122 31.6359 11.4987 34.7615 8.45394C37.5234 5.77291 38.8706 4.87026 41.4304 4.03496C42.5082 3.6712 44.5695 3.34786 45.7416 3.34786C47.749 3.34786 50.3492 3.9676 52.141 4.87026C53.9329 5.75944 55.846 7.36267 57.1528 9.04673C60.9521 13.9642 60.979 21.2797 57.2067 26.2511C56.8295 26.7361 50.9555 32.7044 44.1384 39.5215L31.7302 51.9162L18.9448 39.1173C5.2837 25.4293 5.40496 25.564 4.36757 23.1659C3.47839 21.0777 3.23588 19.8921 3.24936 17.4266C3.26283 15.5539 3.30325 15.0959 3.61311 13.9642C4.79869 9.51827 8.01862 5.84028 12.2355 4.15621C13.6905 3.5769 15.1321 3.2805 17.3281 3.09189C17.4494 3.09189 18.1634 3.14578 18.9179 3.21314Z" fill="#41CB52"/>
</g>
<defs>
<clipPath id="clip0_16_100">
<rect width="64" height="56" fill="white"/>
</clipPath>
</defs>
</svg>
