<svg width="371" height="99" viewBox="0 0 371 99" fill="none" xmlns="http://www.w3.org/2000/svg">
<path d="M2.079 47.794V24.106C2.079 20.662 2.961 17.995 4.725 16.105C6.489 14.215 9.009 13.27 12.285 13.27C15.561 13.27 18.081 14.215 19.845 16.105C21.609 17.995 22.491 20.662 22.491 24.106V28.768H15.939V23.665C15.939 20.935 14.784 19.57 12.474 19.57C10.164 19.57 9.009 20.935 9.009 23.665V48.298C9.009 50.986 10.164 52.33 12.474 52.33C14.784 52.33 15.939 50.986 15.939 48.298V41.872H22.491V47.794C22.491 51.238 21.609 53.905 19.845 55.795C18.081 57.685 15.561 58.63 12.285 58.63C9.009 58.63 6.489 57.685 4.725 55.795C2.961 53.905 2.079 51.238 2.079 47.794ZM46.1071 58H27.2071V13.9H46.1071V20.2H34.1371V31.855H43.6501V38.155H34.1371V51.7H46.1071V58ZM57.4078 58H50.4778V13.9H60.6838C67.5718 13.9 71.0158 17.533 71.0158 24.799V29.146C71.0158 36.412 67.5718 40.045 60.6838 40.045H57.4078V58ZM57.4078 20.2V33.745H60.6838C61.8598 33.745 62.7208 33.43 63.2668 32.8C63.8128 32.128 64.0858 31.057 64.0858 29.587V24.358C64.0858 22.888 63.8128 21.838 63.2668 21.208C62.7208 20.536 61.8598 20.2 60.6838 20.2H57.4078ZM81.522 42.376L90.09 13.9H97.083V58H90.909V29.398L82.341 58H75.348V13.9H81.522V42.376ZM125.67 58H118.425L112.629 38.596L109.794 44.14V58H102.864V13.9H109.794V32.863L118.488 13.9H125.544L117.291 30.091L125.67 58ZM162.161 58H155.231L154.034 49.369H146.033L144.836 58H138.41L145.592 13.9H154.979L162.161 58ZM150.002 21.145L146.915 43.384H153.152L150.002 21.145ZM176.306 37.336L180.968 13.9H187.457L179.33 50.629C178.7 53.485 177.629 55.543 176.117 56.803C174.605 58.021 172.442 58.63 169.628 58.63C168.2 58.63 166.919 58.399 165.785 57.937V51.952C166.751 52.204 167.675 52.33 168.557 52.33C169.733 52.33 170.615 52.141 171.203 51.763C171.791 51.343 172.232 50.629 172.526 49.621L172.652 48.739L164.021 13.9H171.14L176.306 37.336ZM201.796 58H191.086V13.9H209.419V20.2H198.016V31.225H201.796C208.684 31.225 212.128 34.858 212.128 42.124V47.101C212.128 54.367 208.684 58 201.796 58ZM198.016 37.525V51.7H201.796C202.972 51.7 203.833 51.385 204.379 50.755C204.925 50.083 205.198 49.012 205.198 47.542V41.683C205.198 40.213 204.925 39.163 204.379 38.533C203.833 37.861 202.972 37.525 201.796 37.525H198.016ZM238.309 58H231.379L230.182 49.369H222.181L220.984 58H214.558L221.74 13.9H231.127L238.309 58ZM226.15 21.145L223.063 43.384H229.3L226.15 21.145ZM265.047 58H257.802L252.006 38.596L249.171 44.14V58H242.241V13.9H249.171V32.863L257.865 13.9H264.921L256.668 30.091L265.047 58ZM275.131 42.376L283.699 13.9H290.692V58H284.518V29.398L275.95 58H268.957V13.9H275.131V42.376ZM303.403 58H296.473V13.9H306.679C313.567 13.9 317.011 17.533 317.011 24.799V29.146C317.011 36.412 313.567 40.045 306.679 40.045H303.403V58ZM303.403 20.2V33.745H306.679C307.855 33.745 308.716 33.43 309.262 32.8C309.808 32.128 310.081 31.057 310.081 29.587V24.358C310.081 22.888 309.808 21.838 309.262 21.208C308.716 20.536 307.855 20.2 306.679 20.2H303.403ZM320.839 47.542V24.358C320.839 20.83 321.742 18.1 323.548 16.168C325.354 14.236 327.958 13.27 331.36 13.27C334.762 13.27 337.366 14.236 339.172 16.168C340.978 18.1 341.881 20.83 341.881 24.358V47.542C341.881 51.07 340.978 53.8 339.172 55.732C337.366 57.664 334.762 58.63 331.36 58.63C327.958 58.63 325.354 57.664 323.548 55.732C321.742 53.8 320.839 51.07 320.839 47.542ZM334.951 47.983V23.917C334.951 21.019 333.754 19.57 331.36 19.57C328.966 19.57 327.769 21.019 327.769 23.917V47.983C327.769 50.881 328.966 52.33 331.36 52.33C333.754 52.33 334.951 50.881 334.951 47.983ZM358.097 58H347.198V13.9H357.656C361.184 13.9 363.767 14.74 365.405 16.42C367.085 18.058 367.925 20.599 367.925 24.043V25.807C367.925 30.343 366.434 33.22 363.452 34.438V34.564C366.896 35.74 368.618 38.806 368.618 43.762V47.542C368.618 50.944 367.715 53.548 365.909 55.354C364.145 57.118 361.541 58 358.097 58ZM354.128 20.2V31.855H356.837C358.265 31.855 359.315 31.498 359.987 30.784C360.659 30.028 360.995 28.831 360.995 27.193V24.736C360.995 21.712 359.819 20.2 357.467 20.2H354.128ZM354.128 38.155V51.7H358.097C359.357 51.7 360.26 51.385 360.806 50.755C361.394 50.083 361.688 48.949 361.688 47.353V43.51C361.688 41.536 361.352 40.15 360.68 39.352C360.008 38.554 358.853 38.155 357.215 38.155H354.128Z" fill="white"/>
<path d="M56 79.148V80.588H50.366V92H48.746V79.148H56ZM58.747 88.238C58.747 88.346 58.741 88.502 58.729 88.706C58.729 88.898 58.723 89.108 58.711 89.336C58.699 89.552 58.687 89.762 58.675 89.966C58.663 90.158 58.651 90.314 58.639 90.434L63.805 82.352H65.749V92H64.273V86.312C64.273 86.12 64.273 85.868 64.273 85.556C64.285 85.244 64.297 84.938 64.309 84.638C64.321 84.326 64.333 84.092 64.345 83.936L59.215 92H57.253V82.352H58.747V88.238ZM77.1534 82.352V92H75.5694V83.702H70.5834V92H68.9994V82.352H77.1534ZM81.9958 82.352V86.366H87.2338V82.352H88.8178V92H87.2338V87.698H81.9958V92H80.4118V82.352H81.9958ZM100.441 87.158C100.441 87.962 100.333 88.676 100.117 89.3C99.9127 89.912 99.6127 90.434 99.2167 90.866C98.8327 91.298 98.3587 91.628 97.7947 91.856C97.2427 92.072 96.6247 92.18 95.9407 92.18C95.3047 92.18 94.7167 92.072 94.1767 91.856C93.6367 91.628 93.1687 91.298 92.7727 90.866C92.3767 90.434 92.0647 89.912 91.8367 89.3C91.6207 88.676 91.5127 87.962 91.5127 87.158C91.5127 86.09 91.6927 85.19 92.0527 84.458C92.4127 83.714 92.9287 83.15 93.6007 82.766C94.2727 82.37 95.0707 82.172 95.9947 82.172C96.8707 82.172 97.6387 82.37 98.2987 82.766C98.9707 83.15 99.4927 83.714 99.8647 84.458C100.249 85.19 100.441 86.09 100.441 87.158ZM93.1507 87.158C93.1507 87.914 93.2467 88.574 93.4387 89.138C93.6427 89.69 93.9547 90.116 94.3747 90.416C94.7947 90.716 95.3287 90.866 95.9767 90.866C96.6247 90.866 97.1587 90.716 97.5787 90.416C97.9987 90.116 98.3047 89.69 98.4967 89.138C98.7007 88.574 98.8027 87.914 98.8027 87.158C98.8027 86.39 98.7007 85.736 98.4967 85.196C98.2927 84.656 97.9807 84.242 97.5607 83.954C97.1527 83.654 96.6187 83.504 95.9587 83.504C94.9747 83.504 94.2607 83.828 93.8167 84.476C93.3727 85.124 93.1507 86.018 93.1507 87.158ZM109.615 83.684H106.465V92H104.899V83.684H101.785V82.352H109.615V83.684ZM115.246 82.172C116.074 82.172 116.782 82.352 117.37 82.712C117.97 83.072 118.426 83.582 118.738 84.242C119.062 84.89 119.224 85.652 119.224 86.528V87.482H112.618C112.642 88.574 112.918 89.408 113.446 89.984C113.986 90.548 114.736 90.83 115.696 90.83C116.308 90.83 116.848 90.776 117.316 90.668C117.796 90.548 118.288 90.38 118.792 90.164V91.55C118.3 91.766 117.814 91.922 117.334 92.018C116.854 92.126 116.284 92.18 115.624 92.18C114.712 92.18 113.902 91.994 113.194 91.622C112.498 91.25 111.952 90.698 111.556 89.966C111.172 89.222 110.98 88.316 110.98 87.248C110.98 86.192 111.154 85.286 111.502 84.53C111.862 83.774 112.36 83.192 112.996 82.784C113.644 82.376 114.394 82.172 115.246 82.172ZM115.228 83.468C114.472 83.468 113.872 83.714 113.428 84.206C112.996 84.686 112.738 85.358 112.654 86.222H117.568C117.568 85.67 117.484 85.19 117.316 84.782C117.148 84.374 116.89 84.056 116.542 83.828C116.206 83.588 115.768 83.468 115.228 83.468ZM126.45 82.172C127.638 82.172 128.592 82.586 129.312 83.414C130.044 84.242 130.41 85.49 130.41 87.158C130.41 88.25 130.242 89.174 129.906 89.93C129.582 90.674 129.12 91.238 128.52 91.622C127.932 91.994 127.236 92.18 126.432 92.18C125.94 92.18 125.502 92.114 125.118 91.982C124.734 91.85 124.404 91.682 124.128 91.478C123.864 91.262 123.636 91.028 123.444 90.776H123.336C123.36 90.98 123.384 91.238 123.408 91.55C123.432 91.862 123.444 92.132 123.444 92.36V96.32H121.86V82.352H123.156L123.372 83.666H123.444C123.636 83.39 123.864 83.138 124.128 82.91C124.404 82.682 124.728 82.502 125.1 82.37C125.484 82.238 125.934 82.172 126.45 82.172ZM126.162 83.504C125.514 83.504 124.992 83.63 124.596 83.882C124.2 84.122 123.912 84.488 123.732 84.98C123.552 85.472 123.456 86.096 123.444 86.852V87.158C123.444 87.95 123.528 88.622 123.696 89.174C123.864 89.726 124.146 90.146 124.542 90.434C124.95 90.722 125.502 90.866 126.198 90.866C126.786 90.866 127.266 90.704 127.638 90.38C128.022 90.056 128.304 89.618 128.484 89.066C128.676 88.502 128.772 87.86 128.772 87.14C128.772 86.036 128.556 85.154 128.124 84.494C127.704 83.834 127.05 83.504 126.162 83.504ZM136.769 82.19C137.945 82.19 138.815 82.448 139.379 82.964C139.943 83.48 140.225 84.302 140.225 85.43V92H139.073L138.767 90.632H138.695C138.419 90.98 138.131 91.274 137.831 91.514C137.543 91.742 137.207 91.91 136.823 92.018C136.451 92.126 135.995 92.18 135.455 92.18C134.879 92.18 134.357 92.078 133.889 91.874C133.433 91.67 133.073 91.358 132.809 90.938C132.545 90.506 132.413 89.966 132.413 89.318C132.413 88.358 132.791 87.62 133.547 87.104C134.303 86.576 135.467 86.288 137.039 86.24L138.677 86.186V85.61C138.677 84.806 138.503 84.248 138.155 83.936C137.807 83.624 137.315 83.468 136.679 83.468C136.175 83.468 135.695 83.546 135.239 83.702C134.783 83.846 134.357 84.014 133.961 84.206L133.475 83.018C133.895 82.79 134.393 82.598 134.969 82.442C135.545 82.274 136.145 82.19 136.769 82.19ZM137.237 87.338C136.037 87.386 135.203 87.578 134.735 87.914C134.279 88.25 134.051 88.724 134.051 89.336C134.051 89.876 134.213 90.272 134.537 90.524C134.873 90.776 135.299 90.902 135.815 90.902C136.631 90.902 137.309 90.68 137.849 90.236C138.389 89.78 138.659 89.084 138.659 88.148V87.284L137.237 87.338ZM151.538 82.352V92H149.954V83.702H144.968V92H143.384V82.352H151.538ZM156.291 88.238C156.291 88.346 156.285 88.502 156.273 88.706C156.273 88.898 156.267 89.108 156.255 89.336C156.243 89.552 156.231 89.762 156.219 89.966C156.207 90.158 156.195 90.314 156.183 90.434L161.349 82.352H163.293V92H161.817V86.312C161.817 86.12 161.817 85.868 161.817 85.556C161.829 85.244 161.841 84.938 161.853 84.638C161.865 84.326 161.877 84.092 161.889 83.936L156.759 92H154.797V82.352H156.291V88.238ZM167.137 92H165.301L168.055 87.95C167.683 87.854 167.323 87.704 166.975 87.5C166.627 87.284 166.345 86.99 166.129 86.618C165.913 86.234 165.805 85.76 165.805 85.196C165.805 84.272 166.117 83.57 166.741 83.09C167.365 82.598 168.193 82.352 169.225 82.352H173.545V92H171.961V88.166H169.621L167.137 92ZM167.335 85.214C167.335 85.766 167.539 86.18 167.947 86.456C168.367 86.72 168.949 86.852 169.693 86.852H171.961V83.666H169.387C168.655 83.666 168.127 83.81 167.803 84.098C167.491 84.386 167.335 84.758 167.335 85.214ZM183.532 88.238C183.532 88.346 183.526 88.502 183.514 88.706C183.514 88.898 183.508 89.108 183.496 89.336C183.484 89.552 183.472 89.762 183.46 89.966C183.448 90.158 183.436 90.314 183.424 90.434L188.59 82.352H190.534V92H189.058V86.312C189.058 86.12 189.058 85.868 189.058 85.556C189.07 85.244 189.082 84.938 189.094 84.638C189.106 84.326 189.118 84.092 189.13 83.936L184 92H182.038V82.352H183.532V88.238Z" fill="#326BFF"/>
<path d="M210.474 90.578V95.384H208.926V92H199.26V79.148H200.88V90.56H207.306V79.148H208.908V90.578H210.474ZM216.292 82.172C217.12 82.172 217.828 82.352 218.416 82.712C219.016 83.072 219.472 83.582 219.784 84.242C220.108 84.89 220.27 85.652 220.27 86.528V87.482H213.664C213.688 88.574 213.964 89.408 214.492 89.984C215.032 90.548 215.782 90.83 216.742 90.83C217.354 90.83 217.894 90.776 218.362 90.668C218.842 90.548 219.334 90.38 219.838 90.164V91.55C219.346 91.766 218.86 91.922 218.38 92.018C217.9 92.126 217.33 92.18 216.67 92.18C215.758 92.18 214.948 91.994 214.24 91.622C213.544 91.25 212.998 90.698 212.602 89.966C212.218 89.222 212.026 88.316 212.026 87.248C212.026 86.192 212.2 85.286 212.548 84.53C212.908 83.774 213.406 83.192 214.042 82.784C214.69 82.376 215.44 82.172 216.292 82.172ZM216.274 83.468C215.518 83.468 214.918 83.714 214.474 84.206C214.042 84.686 213.784 85.358 213.7 86.222H218.614C218.614 85.67 218.53 85.19 218.362 84.782C218.194 84.374 217.936 84.056 217.588 83.828C217.252 83.588 216.814 83.468 216.274 83.468ZM230.25 92H228.648V83.666H225.804C225.684 85.19 225.534 86.492 225.354 87.572C225.174 88.64 224.946 89.51 224.67 90.182C224.394 90.854 224.064 91.346 223.68 91.658C223.296 91.97 222.846 92.126 222.33 92.126C222.174 92.126 222.018 92.114 221.862 92.09C221.718 92.078 221.598 92.048 221.502 92V90.812C221.574 90.836 221.652 90.854 221.736 90.866C221.82 90.878 221.904 90.884 221.988 90.884C222.252 90.884 222.492 90.776 222.708 90.56C222.924 90.344 223.116 90.014 223.284 89.57C223.464 89.126 223.626 88.568 223.77 87.896C223.914 87.212 224.04 86.408 224.148 85.484C224.256 84.56 224.352 83.516 224.436 82.352H230.25V92ZM234.987 88.238C234.987 88.346 234.981 88.502 234.969 88.706C234.969 88.898 234.963 89.108 234.951 89.336C234.939 89.552 234.927 89.762 234.915 89.966C234.903 90.158 234.891 90.314 234.879 90.434L240.045 82.352H241.989V92H240.513V86.312C240.513 86.12 240.513 85.868 240.513 85.556C240.525 85.244 240.537 84.938 240.549 84.638C240.561 84.326 240.573 84.092 240.585 83.936L235.455 92H233.493V82.352H234.987V88.238ZM251.899 83.684H248.749V92H247.183V83.684H244.069V82.352H251.899V83.684ZM257.53 82.172C258.358 82.172 259.066 82.352 259.654 82.712C260.254 83.072 260.71 83.582 261.022 84.242C261.346 84.89 261.508 85.652 261.508 86.528V87.482H254.902C254.926 88.574 255.202 89.408 255.73 89.984C256.27 90.548 257.02 90.83 257.98 90.83C258.592 90.83 259.132 90.776 259.6 90.668C260.08 90.548 260.572 90.38 261.076 90.164V91.55C260.584 91.766 260.098 91.922 259.618 92.018C259.138 92.126 258.568 92.18 257.908 92.18C256.996 92.18 256.186 91.994 255.478 91.622C254.782 91.25 254.236 90.698 253.84 89.966C253.456 89.222 253.264 88.316 253.264 87.248C253.264 86.192 253.438 85.286 253.786 84.53C254.146 83.774 254.644 83.192 255.28 82.784C255.928 82.376 256.678 82.172 257.53 82.172ZM257.512 83.468C256.756 83.468 256.156 83.714 255.712 84.206C255.28 84.686 255.022 85.358 254.938 86.222H259.852C259.852 85.67 259.768 85.19 259.6 84.782C259.432 84.374 259.174 84.056 258.826 83.828C258.49 83.588 258.052 83.468 257.512 83.468ZM271.488 92H269.886V83.666H267.042C266.922 85.19 266.772 86.492 266.592 87.572C266.412 88.64 266.184 89.51 265.908 90.182C265.632 90.854 265.302 91.346 264.918 91.658C264.534 91.97 264.084 92.126 263.568 92.126C263.412 92.126 263.256 92.114 263.1 92.09C262.956 92.078 262.836 92.048 262.74 92V90.812C262.812 90.836 262.89 90.854 262.974 90.866C263.058 90.878 263.142 90.884 263.226 90.884C263.49 90.884 263.73 90.776 263.946 90.56C264.162 90.344 264.354 90.014 264.522 89.57C264.702 89.126 264.864 88.568 265.008 87.896C265.152 87.212 265.278 86.408 265.386 85.484C265.494 84.56 265.59 83.516 265.674 82.352H271.488V92ZM279.176 86.312C280.016 86.312 280.712 86.414 281.264 86.618C281.816 86.822 282.23 87.128 282.506 87.536C282.794 87.932 282.938 88.436 282.938 89.048C282.938 89.648 282.8 90.17 282.524 90.614C282.26 91.058 281.846 91.4 281.282 91.64C280.718 91.88 279.992 92 279.104 92H274.73V82.352H276.314V86.312H279.176ZM281.354 89.138C281.354 88.55 281.144 88.154 280.724 87.95C280.316 87.734 279.74 87.626 278.996 87.626H276.314V90.722H279.032C279.704 90.722 280.256 90.602 280.688 90.362C281.132 90.122 281.354 89.714 281.354 89.138ZM289.468 92.18C288.616 92.18 287.854 92.006 287.182 91.658C286.522 91.31 286 90.77 285.616 90.038C285.244 89.306 285.058 88.37 285.058 87.23C285.058 86.042 285.256 85.076 285.652 84.332C286.048 83.588 286.582 83.042 287.254 82.694C287.938 82.346 288.712 82.172 289.576 82.172C290.068 82.172 290.542 82.226 290.998 82.334C291.454 82.43 291.826 82.55 292.114 82.694L291.628 84.008C291.34 83.9 291.004 83.798 290.62 83.702C290.236 83.606 289.876 83.558 289.54 83.558C288.892 83.558 288.358 83.696 287.938 83.972C287.518 84.248 287.206 84.656 287.002 85.196C286.798 85.736 286.696 86.408 286.696 87.212C286.696 87.98 286.798 88.634 287.002 89.174C287.206 89.714 287.512 90.122 287.92 90.398C288.328 90.674 288.838 90.812 289.45 90.812C289.978 90.812 290.44 90.758 290.836 90.65C291.244 90.542 291.616 90.41 291.952 90.254V91.658C291.628 91.826 291.268 91.952 290.872 92.036C290.488 92.132 290.02 92.18 289.468 92.18ZM301.086 83.684H297.936V92H296.37V83.684H293.256V82.352H301.086V83.684ZM310.925 84.782C310.925 85.382 310.745 85.85 310.385 86.186C310.025 86.522 309.563 86.75 308.999 86.87V86.942C309.599 87.026 310.121 87.242 310.565 87.59C311.009 87.926 311.231 88.454 311.231 89.174C311.231 89.582 311.153 89.96 310.997 90.308C310.853 90.656 310.625 90.956 310.313 91.208C310.001 91.46 309.599 91.658 309.107 91.802C308.615 91.934 308.021 92 307.325 92H303.167V82.352H307.307C307.991 82.352 308.603 82.43 309.143 82.586C309.695 82.73 310.127 82.982 310.439 83.342C310.763 83.69 310.925 84.17 310.925 84.782ZM309.593 89.174C309.593 88.622 309.383 88.226 308.963 87.986C308.543 87.746 307.925 87.626 307.109 87.626H304.751V90.722H307.145C307.937 90.722 308.543 90.608 308.963 90.38C309.383 90.14 309.593 89.738 309.593 89.174ZM309.323 84.98C309.323 84.524 309.155 84.194 308.819 83.99C308.495 83.774 307.961 83.666 307.217 83.666H304.751V86.312H306.929C307.709 86.312 308.303 86.204 308.711 85.988C309.119 85.772 309.323 85.436 309.323 84.98ZM322.106 87.158C322.106 87.962 321.998 88.676 321.782 89.3C321.578 89.912 321.278 90.434 320.882 90.866C320.498 91.298 320.024 91.628 319.46 91.856C318.908 92.072 318.29 92.18 317.606 92.18C316.97 92.18 316.382 92.072 315.842 91.856C315.302 91.628 314.834 91.298 314.438 90.866C314.042 90.434 313.73 89.912 313.502 89.3C313.286 88.676 313.178 87.962 313.178 87.158C313.178 86.09 313.358 85.19 313.718 84.458C314.078 83.714 314.594 83.15 315.266 82.766C315.938 82.37 316.736 82.172 317.66 82.172C318.536 82.172 319.304 82.37 319.964 82.766C320.636 83.15 321.158 83.714 321.53 84.458C321.914 85.19 322.106 86.09 322.106 87.158ZM314.816 87.158C314.816 87.914 314.912 88.574 315.104 89.138C315.308 89.69 315.62 90.116 316.04 90.416C316.46 90.716 316.994 90.866 317.642 90.866C318.29 90.866 318.824 90.716 319.244 90.416C319.664 90.116 319.97 89.69 320.162 89.138C320.366 88.574 320.468 87.914 320.468 87.158C320.468 86.39 320.366 85.736 320.162 85.196C319.958 84.656 319.646 84.242 319.226 83.954C318.818 83.654 318.284 83.504 317.624 83.504C316.64 83.504 315.926 83.828 315.482 84.476C315.038 85.124 314.816 86.018 314.816 87.158Z" fill="white"/>
</svg>
