<svg width="68" height="58" viewBox="0 0 68 58" fill="none" xmlns="http://www.w3.org/2000/svg">
<g clip-path="url(#clip0_15_92)">
<path d="M32.9072 0.3285C32.3685 0.854099 32.513 1.58994 33.2094 1.95786C33.827 2.28636 34.6811 1.73448 34.6811 1.02492C34.6811 0.51246 34.1555 0 33.6299 0C33.3802 0 33.1043 0.11826 32.9072 0.3285Z" fill="#41CB52"/>
<path d="M31.7224 6.34655C29.5148 8.60662 27.5439 11.3529 25.8619 14.5328C25.4809 15.2555 25.1655 15.8468 25.1524 15.8731C25.1392 15.8862 24.3377 15.3738 23.3653 14.7299C21.2498 13.3239 19.5942 12.4041 17.6757 11.55C15.5602 10.5908 15.3237 10.6565 14.7061 12.2333C13.8783 14.3883 13.3527 16.898 13.1424 19.6705C13.0636 20.5772 12.9979 21.3393 12.9716 21.3656C12.9453 21.3919 12.1044 21.1816 11.1189 20.8925C7.84701 19.9465 3.51082 19.1844 1.44784 19.1844C0.672583 19.1844 0.514903 19.2238 0.252104 19.5128C-0.0238359 19.8019 -0.0369759 19.907 0.041864 20.7874C0.252104 22.8898 0.830263 25.0973 1.8289 27.6465C2.43334 29.197 2.80126 29.6963 3.34 29.6963C3.74734 29.6963 4.3255 29.1576 4.3255 28.7897C4.3255 28.6583 4.1284 28.067 3.87874 27.4888C3.30058 26.1485 2.66986 24.1644 2.34136 22.7321C1.97344 21.0765 1.9603 21.1422 2.85382 21.2342C8.51715 21.8518 15.5076 24.0461 20.6848 26.8318L21.8674 27.4757L21.8148 28.6057C21.736 30.5373 22.3141 33.9011 22.8135 34.453C23.0894 34.7684 23.9304 34.7684 24.1932 34.453C24.5348 34.0588 24.5479 33.8354 24.2983 32.8762C23.8778 31.26 23.615 28.7765 23.8778 28.7765C24.0223 28.7765 25.8094 30.1431 26.7555 30.9709C29.0024 32.9288 30.842 36.0298 31.7224 39.3017C32.1691 40.9573 32.6684 44.4131 32.4713 44.4131C32.4056 44.4131 31.499 43.5459 30.4609 42.4684C28.7002 40.6945 27.6621 39.4462 26.5452 37.8037C26.0065 37.0153 25.6386 36.8313 25.0998 37.0416C24.5479 37.2781 24.3508 37.83 24.6136 38.395C25.2049 39.6302 28.6739 43.7693 30.1981 45.057C30.5792 45.3723 30.8551 45.6483 30.8288 45.6746C30.75 45.7534 27.7147 45.4906 26.0722 45.2541C21.7097 44.6365 18.2933 43.5327 15.4288 41.8508C12.4723 40.1032 9.35811 36.9102 6.87466 33.1127C6.38848 32.3506 5.88916 31.6673 5.7709 31.5754C5.20588 31.1286 4.3255 31.6148 4.3255 32.3638C4.3255 32.8499 5.60008 34.8998 7.04547 36.7656L7.88643 37.8431L7.51851 37.9877C6.4279 38.395 4.0627 39.4462 2.683 40.1426C-0.115816 41.5486 -0.0106959 41.8114 4.2598 44.3737C9.97569 47.7901 15.2185 49.7348 20.3957 50.3392C22.3798 50.5758 26.2824 50.4312 27.9775 50.0633C29.6331 49.7085 31.2362 49.1567 32.6159 48.4734L33.6277 47.9609L34.6526 48.4734C37.2412 49.7742 39.6458 50.3392 43.0359 50.4312C46.6757 50.5232 49.619 50.0896 53.18 48.9464C55.2167 48.2894 58.0023 47.1462 58.3571 46.8177C58.6725 46.5287 58.6725 45.7008 58.3571 45.4249C57.9892 45.0833 57.411 45.1621 56.3073 45.6614C53.6267 46.8834 50.1578 47.8952 47.3195 48.2894C44.4024 48.6836 40.1977 48.4602 38.2924 47.7901L37.7668 47.6061L38.9494 47.5142C43.4432 47.1725 47.6217 46.1213 50.9593 44.5314C53.3114 43.4013 54.6779 42.4553 57.122 40.2477L58.0155 39.4462L59.1849 39.893C60.88 40.55 63.324 41.6669 63.324 41.7851C63.324 41.8508 62.7721 42.2187 62.102 42.6261C60.7354 43.4408 60.4464 43.8087 60.7223 44.3868C60.8143 44.5708 61.0508 44.8205 61.2479 44.9256C61.6815 45.1752 61.8786 45.0964 64.257 43.6116C67.2397 41.7457 67.2266 41.3909 64.1913 39.9324C62.5882 39.1703 60.8406 38.4081 59.6974 37.9745L59.382 37.8431L60.1967 36.8313C61.5764 35.0837 63.0349 32.7448 64.1781 30.419C65.9257 26.8712 66.8193 24.125 67.1478 21.2342L67.3186 19.8413L66.9901 19.4997C66.6747 19.1581 66.6747 19.1581 65.1636 19.2238C62.6802 19.3552 58.7645 20.1041 55.4532 21.1028C54.8619 21.2867 54.3363 21.405 54.2969 21.3787C54.2706 21.3393 54.1917 20.5772 54.1129 19.6705C53.9027 16.898 53.3771 14.3883 52.5492 12.2333C51.9448 10.6828 51.7346 10.6302 49.803 11.4449C48.1211 12.1545 45.7953 13.4553 43.7849 14.7956C42.8782 15.4 42.1161 15.8994 42.0898 15.8994C42.0635 15.8994 41.7219 15.2686 41.3277 14.4802C40.5787 13.0217 39.199 10.801 38.7128 10.2754C38.1478 9.67096 37.1229 10.0915 37.1229 10.9193C37.1229 11.2347 37.3463 11.6946 37.8587 12.483C40.5787 16.6221 42.5103 21.5101 43.233 26.0828C43.4958 27.7122 43.4695 30.7344 43.1673 31.9958C42.6023 34.453 41.2226 37.2124 39.3436 39.6302C38.4369 40.7865 34.9942 44.4131 34.7971 44.4131C34.7446 44.4131 34.7183 44.216 34.7446 43.9926C35.0205 41.7851 35.1256 41.1544 35.4016 39.9718C36.2557 36.3846 38.1741 33.0208 40.605 30.8658C41.4197 30.1431 41.5117 30.0117 41.5117 29.5781C41.5117 28.9474 41.1963 28.6451 40.5393 28.6451C40.0925 28.6451 39.9349 28.7634 38.634 30.0511C36.5053 32.2061 34.9942 34.6501 34.0744 37.4752C33.8773 38.1191 33.6671 38.5921 33.6145 38.5264C33.5751 38.4738 33.3517 37.8825 33.1152 37.1993C31.7092 33.0996 29.0681 29.8277 24.9684 27.1209L24.0092 26.4902L24.088 25.6624C24.1406 25.2156 24.3508 24.1118 24.5742 23.2315C25.9276 17.8572 29.1601 11.9048 32.9181 7.89707L33.6145 7.16123L34.3109 7.84451C35.0862 8.60662 35.4804 8.71174 36.006 8.29126C36.2294 8.12044 36.3082 7.91021 36.3082 7.55543C36.3082 7.12181 36.19 6.96413 35.1782 5.96549C33.6014 4.41497 33.6014 4.41497 31.7224 6.34655ZM18.2539 13.9941C19.7124 14.7299 21.9068 16.057 23.2865 17.0557C24.0486 17.5944 24.2851 17.8441 24.2194 17.9886C23.8121 18.8821 22.6821 22.5482 22.4324 23.7439C22.2747 24.5586 22.0908 25.2287 22.0251 25.2287C21.9725 25.2287 21.3286 24.9265 20.5797 24.5455C19.8438 24.1775 18.2933 23.468 17.137 22.9818L15.0346 22.1014L15.0609 20.8137C15.1266 18.5274 15.5076 16.0965 16.1515 14.0335C16.4668 13.0086 16.296 13.0086 18.2539 13.9941ZM51.4323 15.2161C51.8134 16.7797 52.1156 18.777 52.2339 20.6954L52.3127 22.154L51.025 22.6533C49.4351 23.2709 46.5443 24.598 45.7559 25.0579C45.4405 25.2419 45.1646 25.3733 45.1383 25.347C45.1251 25.3207 44.9675 24.6374 44.8098 23.849C44.5864 22.7059 43.4958 19.1449 43.0359 17.9886C42.8782 17.6076 46.8465 15.019 49.5665 13.7313L50.7753 13.1531L50.9462 13.5473C51.0381 13.7575 51.2484 14.5197 51.4323 15.2161ZM65.1636 21.2736C65.1636 21.7729 64.6512 23.8885 64.1781 25.2944C61.8261 32.4295 56.7803 39.0389 51.3009 42.1662C47.9634 44.0715 43.5221 45.1884 37.3726 45.6614L36.3214 45.7403L38.1084 43.9269C40.7627 41.2201 42.2606 39.236 43.4695 36.8182C44.8098 34.1639 45.3222 32.1404 45.4011 29.3678L45.4536 27.5282L45.8084 27.2917C46.426 26.8844 48.8832 25.6755 50.3286 25.0579C54.5728 23.2446 59.2506 21.9306 63.4029 21.3656C65.0454 21.1422 65.1636 21.1291 65.1636 21.2736ZM10.383 40.4317C11.9861 41.9954 13.76 43.2699 15.823 44.2817C19.3314 46.0162 22.8135 46.936 27.8329 47.4485C29.4491 47.6193 29.4491 47.6193 28.9498 47.7901C28.6607 47.8952 27.7278 48.0923 26.8606 48.25C24.7976 48.6048 20.9739 48.5391 18.7006 48.1055C14.2199 47.2645 9.89685 45.4775 4.43062 42.1925C4.15468 42.0216 3.9313 41.8508 3.9313 41.7851C3.9313 41.6406 8.89821 39.4593 9.30555 39.4199C9.33183 39.4199 9.81801 39.8667 10.383 40.4317Z" fill="#41CB52"/>
<path d="M0.278272 50.1291C-0.0765077 50.5759 -0.0896478 50.9832 0.238852 51.3906C0.475372 51.6928 0.580491 51.7059 2.95883 51.7979C6.88768 51.9425 10.2778 52.4286 13.5234 53.2959C14.2067 53.4798 16.9003 54.3339 19.5021 55.188C27.0313 57.6846 28.6738 58 33.6275 58C38.5813 58 40.2632 57.6715 47.753 55.188C55.4531 52.6389 58.4358 52.0213 64.2963 51.7979C66.6746 51.7059 66.7797 51.6928 67.0162 51.3906C67.3447 50.9832 67.3316 50.5759 66.9768 50.1291L66.6877 49.7612L64.1911 49.8401C58.3964 50.024 54.7829 50.7599 47.2274 53.2827C40.0399 55.6874 38.3185 56.0421 33.4961 56.0421C28.792 56.0421 27.4255 55.7531 19.0422 52.9542C12.5379 50.7861 8.62216 50.024 3.06395 49.8401L0.567351 49.7612L0.278272 50.1291Z" fill="#41CB52"/>
</g>
<defs>
<clipPath id="clip0_15_92">
<rect width="68" height="58" fill="white"/>
</clipPath>
</defs>
</svg>
