<svg width="64" height="64" viewBox="0 0 64 64" fill="none" xmlns="http://www.w3.org/2000/svg">
<path d="M40.5004 1.13752C38.7504 1.33752 36.7379 2.13752 35.4879 3.12502L35.0254 3.50002L34.3004 3.06252C32.3504 1.88752 29.3879 1.66252 27.3129 2.53752C25.7629 3.18752 24.0504 4.62502 23.4379 5.80002L23.1879 6.27502L22.5629 6.18752C20.6504 5.92502 20.2504 5.88752 19.6629 5.87502C18.8379 5.87502 18.3379 6.25002 18.3379 6.87502C18.3379 7.47502 18.8379 7.87502 19.6004 7.87502C20.4129 7.88752 21.9004 8.08752 22.9629 8.33752C23.8004 8.52502 23.8754 8.52502 24.1879 8.32502C24.3629 8.21252 24.6379 7.82502 24.8004 7.46252C26.2754 4.13752 30.5504 2.96252 33.6254 5.02502C35.1629 6.06252 35.1254 6.06252 36.2129 5.11252C37.0629 4.37502 38.6129 3.58752 39.7504 3.28752C40.9254 2.98752 42.6879 3.02502 43.9379 3.36252C46.9379 4.20002 49.2504 6.57502 49.9504 9.56252C50.2379 10.825 50.1504 12.8875 49.7504 14.1C49.4754 14.9375 49.4629 15.05 49.6379 15.35C49.9379 15.8875 50.3504 16.025 51.2004 15.8625C51.6129 15.7875 52.4629 15.75 53.1254 15.7875C59.2879 16.1375 63.3754 22.325 61.2629 28.125C60.4629 30.3 58.9254 32.05 56.8629 33.125C55.4254 33.8625 54.2504 34.15 52.4004 34.1625C50.9379 34.1875 50.8379 34.2 50.6129 34.4875C50.2879 34.8875 50.3129 35.45 50.6629 35.8C51.0254 36.1625 52.3879 36.3125 53.8129 36.125C57.8629 35.6125 61.0129 33.35 62.7504 29.7375C63.5254 28.1125 63.7754 26.975 63.7879 25.0625C63.8004 23.775 63.7379 23.2 63.5254 22.3125C62.3379 17.55 58.1754 14.075 53.3129 13.7875L52.0629 13.7125V11.6375C52.0629 9.81252 52.0254 9.45002 51.7754 8.62502C50.8379 5.65002 48.6504 3.15002 45.9379 1.93752C44.3879 1.25002 42.2254 0.937518 40.5004 1.13752Z" fill="#326BFF"/>
<path d="M14.6382 6.51253C13.3007 6.87503 12.5882 7.25003 12.4507 7.65003C12.2882 8.11253 12.4757 8.62503 12.9007 8.86253C13.2007 9.03753 13.3382 9.01253 14.5757 8.63753C15.3257 8.41253 16.0382 8.20003 16.1632 8.17503C16.4757 8.07503 16.7757 7.43753 16.6757 7.06253C16.5882 6.70003 16.0632 6.25003 15.7632 6.26253C15.6507 6.26253 15.1507 6.37503 14.6382 6.51253Z" fill="#326BFF"/>
<path d="M9.42473 8.9875C5.77473 11.375 2.97473 15.7875 2.19973 20.3625C1.94973 21.8375 1.93723 24.45 2.18723 25.9375C2.84973 30.0375 5.01223 33.8875 8.12473 36.4625L8.93723 37.1375L9.08723 38.175C9.37473 40.1875 10.0372 41.525 11.4372 42.9375C13.9622 45.475 17.8997 45.975 21.1372 44.1625C21.1747 44.1375 21.4122 44.425 21.6622 44.8C22.7997 46.5125 24.8622 48.05 26.9747 48.75C32.1497 50.475 37.9747 47.7875 39.9497 42.75C40.2247 42.05 40.3372 41.8875 40.4872 41.95C40.5997 42 41.1622 42.2125 41.7497 42.4125C45.4997 43.7125 49.6747 42.0375 51.4122 38.525C51.7872 37.7875 51.7997 37.725 51.6247 37.4C51.5122 37.225 51.2872 36.9875 51.0997 36.8875C50.5622 36.575 50.1622 36.8125 49.5997 37.75C48.3497 39.8625 46.2247 41 43.8747 40.8375C42.7122 40.7625 41.7747 40.4125 40.7372 39.6875C40.2622 39.35 39.7997 39.125 39.5872 39.125C39.1872 39.125 38.6247 39.6125 38.6247 39.9625C38.6247 40.4875 38.2122 41.75 37.7247 42.75C36.8122 44.6125 34.8622 46.2625 32.8122 46.9125C32.0747 47.1375 31.6497 47.1875 30.1872 47.1875C28.6122 47.1875 28.3497 47.15 27.5247 46.85C27.0122 46.6625 26.2872 46.325 25.8997 46.1C24.9372 45.5375 23.5247 44.1 22.9997 43.15C22.0497 41.425 21.7497 41.3 20.5497 42.125C19.4997 42.8375 18.6247 43.1375 17.3622 43.2125C13.8372 43.425 10.9997 40.65 10.9997 36.9875V36.2625L10.2247 35.6125C6.01223 32.175 3.99973 28.1375 3.99973 23.2C3.99973 20.05 4.83723 17.2625 6.58723 14.6375C7.42473 13.3875 9.07473 11.675 10.2872 10.825C11.1872 10.175 11.3747 9.95 11.3747 9.4375C11.3747 9.0375 10.8622 8.5 10.4622 8.5C10.2997 8.5 9.83723 8.7125 9.42473 8.9875Z" fill="#326BFF"/>
<path d="M10.3996 46.5625C7.9871 47.2375 6.3496 49.75 6.7496 52.1625C7.0121 53.775 8.0871 55.225 9.5621 55.95C10.2496 56.2875 10.4121 56.3125 11.6871 56.3125C12.9121 56.3125 13.1371 56.275 13.7871 55.975C14.1996 55.775 14.7996 55.3375 15.1996 54.95C16.7621 53.3875 17.1246 51.1375 16.1496 49.15C15.6996 48.225 14.4746 47.1 13.5371 46.75C12.5996 46.4 11.2621 46.3125 10.3996 46.5625ZM12.6121 48.575C13.9371 48.9625 14.8996 50.4625 14.6871 51.7875C14.5121 52.8375 13.7746 53.8 12.8496 54.175C12.2121 54.45 11.0621 54.425 10.4371 54.1375C7.9996 53 8.2246 49.3625 10.7746 48.5625C11.4871 48.3375 11.8246 48.3375 12.6121 48.575Z" fill="#326BFF"/>
<path d="M1.80037 57.6125C1.52537 57.7375 1.10037 58.075 0.850368 58.375C-0.862132 60.375 0.937868 63.4125 3.52537 62.8625C5.61287 62.4125 6.43787 59.9125 5.02537 58.35C4.17537 57.4125 2.88787 57.1125 1.80037 57.6125ZM3.50037 59.625C3.81287 59.9375 3.81287 60.2625 3.52537 60.625C3.03787 61.225 2.01287 60.75 2.18787 60.0125C2.33787 59.375 3.03787 59.1625 3.50037 59.625Z" fill="#326BFF"/>
<g clip-path="url(#clip0_292_1206)">
<path d="M37.9991 19L36.5841 17.585L30.2441 23.93L31.6591 25.345L37.9991 19ZM42.2441 17.585L31.6541 28.17L27.4841 24L26.0691 25.415L31.6541 31L43.6541 19L42.2441 17.585ZM20.4141 25.415L25.9991 31L27.4141 29.585L21.8291 24L20.4141 25.415Z" fill="#326BFF"/>
</g>
<defs>
<clipPath id="clip0_292_1206">
<rect width="24" height="24" fill="white" transform="translate(20 12)"/>
</clipPath>
</defs>
</svg>
