<svg width="100" height="100" viewBox="0 0 100 100" fill="none" xmlns="http://www.w3.org/2000/svg">
<g clip-path="url(#clip0_15_66)">
<path d="M79.1992 26.3672C75.2539 27.1679 72.7148 28.3398 70.6055 30.3125C68.9062 31.8945 68.2617 33.2031 68.2617 35.0586C68.2812 36.875 68.9648 38.2812 70.6055 39.8242C73.6914 42.6953 79.1602 44.3164 85.0586 44.082C90.7617 43.8672 94.9414 42.3633 97.7734 39.5508C99.8828 37.4609 100.469 35.4297 99.6289 33.2031C98.3398 29.8047 94.4727 27.4023 88.4961 26.289C86.2305 25.8594 81.5234 25.8984 79.1992 26.3672ZM91.2109 31.5625C92.4609 31.9726 93.6523 33.0664 93.8477 33.9648L93.9844 34.5703H95.332C96.543 34.5703 96.6797 34.6094 96.6797 34.9609C96.6797 35.3125 96.543 35.3515 95.4102 35.3515C94.1992 35.3515 94.1211 35.3711 93.9453 35.8789C93.2227 37.8711 91.9141 38.6328 88.6328 38.9453L87.5 39.0625V38.2812V37.5H88.3398C90.0781 37.5 91.7969 36.6015 91.7969 35.7031C91.7969 35.3711 91.543 35.3515 88.1445 35.3515L84.4727 35.3711L83.8867 36.3867C82.8906 38.1054 81.5625 38.7109 78.8086 38.7109C76.0352 38.6914 74.1211 37.7929 73.5352 36.25C73.2031 35.3711 73.1641 35.3515 72.3438 35.3515C71.6211 35.3515 71.4844 35.2929 71.4844 34.9609C71.4844 34.6289 71.6211 34.5703 72.3633 34.5703C73.2031 34.5703 73.2422 34.5508 73.6133 33.7109C74.1992 32.3828 75.6641 31.582 77.832 31.4062C78.6133 31.3476 78.6133 31.3476 78.6133 32.0312C78.6133 32.6758 78.5742 32.7148 77.793 32.8515C76.4648 33.0664 75.3906 33.789 75.3906 34.4531C75.3906 34.5117 76.9336 34.5703 78.8086 34.5703H82.2266L82.5977 33.8281C83.3594 32.3828 84.2188 31.6797 85.8398 31.2304C86.7578 30.9765 90.0195 31.1719 91.2109 31.5625Z" fill="#41CB52"/>
<path d="M87.4023 32.6172C86.3867 32.7734 85.8984 33.0469 85.2539 33.8281L84.707 34.4727L88.2812 34.5312C90.2539 34.5508 91.8945 34.5312 91.9531 34.4727C92.168 34.2773 91.2891 33.3008 90.6055 32.9883C89.8047 32.5977 88.457 32.4414 87.4023 32.6172Z" fill="#41CB52"/>
<path d="M75.3906 35.5664C75.3906 36.9141 78.4375 37.8125 80.332 37.0117C80.918 36.7774 81.8359 35.8399 81.8359 35.4688C81.8359 35.4102 80.3906 35.3516 78.6133 35.3516C76.4648 35.3516 75.3906 35.4297 75.3906 35.5664Z" fill="#41CB52"/>
<path d="M47.3632 37.0312C42.7343 37.5391 38.6718 39.1602 36.3476 41.4258C34.8632 42.8711 34.3163 44.0234 34.2186 45.8594C34.1405 47.1484 34.1991 47.4023 34.746 48.5352C35.8593 50.7812 38.3983 52.6953 41.7577 53.8281C44.6288 54.7852 46.7577 55.1172 49.9999 55.1172C53.2421 55.1172 55.371 54.7852 58.2421 53.8281C61.6015 52.6953 64.1405 50.7812 65.2538 48.5352C65.8007 47.4023 65.8593 47.1484 65.7811 45.8594C65.6835 44.0234 65.1366 42.8516 63.6718 41.4258C61.7968 39.5898 58.5741 38.0859 55.039 37.4023C53.4179 37.0898 48.8476 36.875 47.3632 37.0312ZM57.1874 42.5977C58.2811 42.9102 59.3163 43.8672 59.6483 44.8242L59.9022 45.6055L61.289 45.6641C62.5194 45.7227 62.6952 45.7617 62.6952 46.0937C62.6952 46.4258 62.5194 46.4648 61.289 46.5234C59.8827 46.582 59.8827 46.582 59.7265 47.207C59.3358 48.6914 57.4608 49.7266 54.746 49.9414L53.3202 50.0586V49.3555C53.3202 48.6719 53.3202 48.6719 54.3554 48.5352C56.1132 48.3203 56.7968 48.0664 57.3046 47.4414C57.578 47.1094 57.8124 46.7578 57.8124 46.6602C57.8124 46.5625 56.2304 46.4844 54.0624 46.4844L50.2929 46.5039L49.7069 47.5195C48.9647 48.8086 47.5976 49.5508 45.664 49.7461C42.578 50.0195 39.2577 48.5156 39.2577 46.8359C39.2577 46.582 39.0429 46.4844 38.3397 46.4453C37.6366 46.4062 37.3827 46.3086 37.3436 46.0352C37.2851 45.7617 37.4218 45.7031 38.2421 45.7031C39.1405 45.7031 39.2186 45.6641 39.3163 45.1367C39.5897 43.8086 41.2694 42.7148 43.4374 42.4609L44.5311 42.3242V43.0469C44.5311 43.5937 44.453 43.75 44.1796 43.75C43.4765 43.75 41.9921 44.375 41.6991 44.7852C41.0741 45.6641 41.1913 45.7031 44.6874 45.7031H47.9686L48.7694 44.4531C49.7265 42.9687 50.6054 42.4219 52.4218 42.2266C53.8085 42.0703 55.996 42.2266 57.1874 42.5977Z" fill="#41CB52"/>
<path d="M52.4414 43.8281C51.8359 44.082 50.7812 45.1758 50.7812 45.5273C50.7812 45.625 52.2852 45.7031 54.2969 45.7031C57.6367 45.7031 57.8125 45.6836 57.8125 45.332C57.8125 44.8438 56.8164 44.0039 55.8984 43.75C54.9023 43.4766 53.1445 43.5156 52.4414 43.8281Z" fill="#41CB52"/>
<path d="M41.543 47.1093C42.4414 48.6523 46.2891 48.7304 47.3438 47.2265C47.5195 46.9921 47.6562 46.7187 47.6562 46.6406C47.6562 46.5429 46.1914 46.4843 44.4141 46.4843H41.1719L41.543 47.1093Z" fill="#41CB52"/>
<path d="M68.2422 38.1445C68.0078 38.7695 68.3398 40.2343 68.9843 41.4453C70.4687 44.2578 74.1992 46.4062 79.2773 47.4023C81.4062 47.8124 86.1914 47.8515 88.4765 47.4804C90.664 47.1288 93.5742 46.1328 95.2343 45.2148C96.8945 44.2968 98.789 42.4218 99.3945 41.1132C99.8632 40.1171 100.195 37.8906 99.8828 37.8906C99.7851 37.9101 99.5117 38.3398 99.2578 38.8671C96.5429 44.6484 83.9257 47.246 75.1953 43.8085C72.2656 42.6562 69.5898 40.5078 68.75 38.6328C68.457 37.9687 68.3593 37.871 68.2422 38.1445Z" fill="#41CB52"/>
<path d="M68.2421 41.875C67.8319 42.9297 68.8866 45.4883 70.3515 46.9336C73.2226 49.8047 78.1249 51.4062 83.9843 51.4258C90.0585 51.4258 94.9218 49.8438 97.8515 46.8945C99.1405 45.6055 99.8046 44.2773 99.9609 42.7344C100.059 41.4648 99.8241 41.25 99.4335 42.2852C99.2968 42.6758 98.7109 43.4961 98.1249 44.1406C95.2343 47.2461 90.1366 49.0234 84.0819 49.0234C77.0116 49.0234 70.9179 46.4062 68.8671 42.5C68.496 41.7969 68.3398 41.6406 68.2421 41.875Z" fill="#41CB52"/>
<path d="M68.2422 45.5859C67.8516 47.1875 69.3555 50.0195 71.3672 51.5039C74.6484 53.9258 78.9063 55.1172 84.1797 55.1172C92.7344 55.0977 99.5117 51.3672 99.9609 46.4453C100.078 45.1367 99.8633 45 99.3555 46.0742C98.5742 47.793 96.4063 49.6289 93.8477 50.7813C84.9609 54.7656 71.7188 52.2656 68.8477 46.0547C68.3984 45.0781 68.3789 45.0586 68.2422 45.5859Z" fill="#41CB52"/>
<path d="M13.1835 48.6328C7.05072 49.2774 2.24603 51.7969 0.566345 55.2344C-0.117249 56.6211 -0.0781864 58.7305 0.64447 60.1172C1.38666 61.5235 2.32416 62.5196 3.92572 63.5938C10.996 68.2813 24.2578 67.5586 29.6484 62.168C31.7578 60.0781 32.3437 57.3633 31.1718 55.0977C29.6679 52.1875 25.6249 49.7852 20.7226 48.9258C18.6913 48.5742 15.0976 48.4375 13.1835 48.6328ZM23.1054 54.1211C24.1992 54.4922 25.3515 55.5469 25.6054 56.4649L25.8398 57.2266H27.1874C28.3788 57.2266 28.5156 57.2656 28.5156 57.6172C28.5156 57.9688 28.3788 58.0078 27.1679 58.0078C25.8203 58.0078 25.8203 58.0078 25.6835 58.5938C25.3124 60.2735 23.0273 61.5235 20.2734 61.5235H19.1406V60.8594V60.2149L20.4296 60.0781C21.9921 59.9219 22.8906 59.5703 23.3203 58.9649C23.9648 58.0274 23.8867 58.0078 19.9218 58.0078H16.2109L15.8398 58.75C14.9023 60.6055 13.0078 61.4453 10.1562 61.2891C7.57806 61.1328 5.76166 60.1563 5.25384 58.6524C5.05853 58.0469 4.98041 58.0078 4.17963 58.0078C3.45697 58.0078 3.32025 57.9492 3.32025 57.6172C3.32025 57.2852 3.45697 57.2266 4.17963 57.2266C4.98041 57.2266 5.05853 57.1875 5.25384 56.5821C5.72259 55.1953 7.28509 54.2383 9.51166 53.9844L10.5468 53.8477V54.5313C10.5468 55.1953 10.5273 55.2149 9.43353 55.4688C8.35931 55.7031 7.2265 56.5039 7.2265 57.0117C7.2265 57.168 8.32025 57.2266 10.6054 57.2266H13.9648L14.5117 56.25C15.1562 55.1172 16.0742 54.2969 17.1288 53.9649C18.0468 53.6524 22.0507 53.7696 23.1054 54.1211Z" fill="#41CB52"/>
<path d="M18.4961 55.3516C17.5977 55.6836 17.2461 55.9766 16.875 56.6797L16.582 57.2266H20.2148C22.207 57.2266 23.8281 57.1875 23.8281 57.1289C23.8281 56.6797 23.125 55.8594 22.5195 55.5664C21.5625 55.0977 19.4531 55 18.4961 55.3516Z" fill="#41CB52"/>
<path d="M7.22656 58.3008C7.22656 58.8672 8.20312 59.5508 9.33594 59.7851C10.918 60.0976 12.2852 59.7656 13.0664 58.8672C13.3984 58.4961 13.6719 58.1445 13.6719 58.1054C13.6719 58.0468 12.2266 58.0078 10.4492 58.0078C7.67578 58.0078 7.22656 58.0468 7.22656 58.3008Z" fill="#41CB52"/>
<path d="M34.2383 50.0195C34.3359 51.8945 34.9805 53.1445 36.582 54.6094C39.5508 57.2852 44.3945 58.7891 50.0195 58.7891C56.9531 58.7891 62.7539 56.4062 65.0195 52.6562C65.5859 51.7188 65.7031 51.3086 65.7812 50.0391L65.8594 48.5352L65.2539 49.7461C63.4766 53.2227 58.6328 55.6641 52.3047 56.2891C44.707 57.0312 36.8555 54.1016 34.7266 49.707L34.1406 48.5352L34.2383 50.0195Z" fill="#41CB52"/>
<path d="M68.2422 49.1016C68.1641 49.2773 68.1641 49.8438 68.2422 50.3516C68.8867 55.1758 75.6641 58.7891 84.0625 58.7891C91.7969 58.7891 97.9688 55.918 99.6289 51.5625C100 50.5664 100.137 49.0234 99.8438 49.0234C99.7656 49.0234 99.4922 49.4141 99.2578 49.9023C97.1875 54.1602 89.4141 56.9922 81.7578 56.2891C75.4102 55.7031 70.4688 53.1836 68.8281 49.7266C68.4766 48.9648 68.3398 48.8281 68.2422 49.1016Z" fill="#41CB52"/>
<path d="M34.1992 53.4179C34.1992 55.4687 35.1367 57.1679 37.0703 58.7109C43.2227 63.5937 55.8203 63.789 62.4219 59.0819C64.6289 57.4999 65.8203 55.4882 65.8203 53.3398V52.246L65.332 53.2616C63.8867 56.3866 59.6094 58.8671 54.1016 59.7851C53.3008 59.9218 51.4453 60.0194 50 60.0194C48.5547 60.0194 46.6992 59.9218 45.8984 59.7851C40.3906 58.8671 36.1133 56.3866 34.668 53.2616L34.1797 52.246L34.1992 53.4179Z" fill="#41CB52"/>
<path d="M68.2422 53.3789C68.0078 54.0039 68.3398 55.4687 68.9843 56.6796C71.0156 60.4882 76.8164 62.9492 83.8867 62.9687C87.2851 62.9882 89.375 62.6953 92.0117 61.8164C96.7773 60.2343 99.6484 57.4999 99.9414 54.3164C100 53.6523 99.9804 53.1249 99.8828 53.1249C99.7851 53.1445 99.5117 53.5742 99.2578 54.1015C98.2226 56.3281 95.2734 58.3984 91.4843 59.5703C87.2656 60.8593 81.3867 60.8984 77.0312 59.6679C73.1836 58.5546 69.7851 56.1914 68.75 53.8671C68.457 53.2031 68.3593 53.1054 68.2422 53.3789Z" fill="#41CB52"/>
<path d="M34.2188 57.3242C34.3164 59.0625 34.8633 60.2539 36.25 61.6406C38.1445 63.5156 41.3477 65.0195 45.0586 65.7617C47.4219 66.2109 52.5781 66.2109 54.9414 65.7617C58.6914 65.0195 61.7969 63.5547 63.7109 61.6211C65.1367 60.2148 65.6836 59.082 65.7617 57.3242L65.8398 55.957L65.2344 57.168C63.7891 60.0586 59.5898 62.5 54.4531 63.3789C52.168 63.7891 47.832 63.7891 45.5469 63.3789C40.4102 62.5 36.2305 60.0977 34.7656 57.168L34.1406 55.957L34.2188 57.3242Z" fill="#41CB52"/>
<path d="M68.2421 57.1094C67.8319 58.1641 68.8866 60.7227 70.3515 62.168C75.7421 67.5586 89.0038 68.2813 96.0937 63.5742C98.4765 61.9922 99.746 60.1367 99.9609 57.9688C100.059 56.6992 99.8241 56.4844 99.4335 57.5196C99.0819 58.4961 97.2655 60.3906 95.8398 61.2891C90.996 64.2969 83.6718 65.1172 77.0898 63.3594C73.6523 62.461 70.0194 59.9805 68.9062 57.8125C68.496 57.0313 68.3398 56.8555 68.2421 57.1094Z" fill="#41CB52"/>
<path d="M34.1795 60.8398C34.16 64.0039 37.3045 67.0898 42.0897 68.6328C44.785 69.4922 46.7186 69.7852 49.9998 69.7852C55.8006 69.7852 60.4881 68.3008 63.4178 65.5664C65.0389 64.043 65.8202 62.5 65.8202 60.8594L65.8006 59.668L65.3514 60.5859C64.6678 61.9922 63.6131 63.1641 62.1483 64.1211C58.8866 66.3086 54.8631 67.3828 49.9998 67.3828C44.9413 67.3828 40.5272 66.1328 37.3631 63.7891C36.0545 62.832 35.3123 61.9531 34.6483 60.5859L34.1991 59.668L34.1795 60.8398Z" fill="#41CB52"/>
<path d="M31.1717 61.2499C29.6092 65.0194 22.9295 67.9687 15.9178 67.9687C8.94515 67.9687 2.30453 65.078 0.64437 61.3085C0.17562 60.2148 -0.0782866 60.3515 0.0389009 61.6796C0.48812 66.6015 7.26546 70.3319 15.8202 70.3515C23.7498 70.371 30.2147 67.2655 31.5428 62.7929C32.0897 61.0155 31.7772 59.7655 31.1717 61.2499Z" fill="#41CB52"/>
<path d="M68.2422 60.8203C68.0274 61.6992 68.5157 63.3789 69.3555 64.6289C71.6797 68.125 77.4219 70.3516 84.1016 70.3516C92.6953 70.3516 99.5117 66.6211 99.9414 61.6797C100 61.0547 99.9805 60.5469 99.8828 60.5469C99.7852 60.5469 99.5508 60.8984 99.3555 61.3281C98.2422 63.75 94.668 66.1133 90.5078 67.168C81.6992 69.4141 71.3086 66.582 68.8477 61.2891C68.3985 60.3125 68.3789 60.293 68.2422 60.8203Z" fill="#41CB52"/>
<path d="M34.2187 65.2539C34.3359 67.1289 34.9805 68.3789 36.582 69.8438C39.5117 72.4805 44.4336 74.0234 50 74.0234C56.9141 74.0234 62.7734 71.6211 65.0195 67.8906C65.5859 66.9531 65.7031 66.543 65.7812 65.2734L65.8594 63.7695L65.2539 64.9805C62.5 70.3516 52.2656 73.0859 43.4375 70.7812C39.3164 69.7266 36.0547 67.5391 34.7461 64.9805L34.1406 63.7695L34.2187 65.2539Z" fill="#41CB52"/>
<path d="M31.1718 64.9804C30.1757 67.3828 26.6015 69.7265 22.2265 70.8789C13.8085 73.0664 3.22259 70.2539 0.742118 65.1367C0.507743 64.6484 0.234306 64.2578 0.156181 64.2578C-0.136788 64.2578 -6.92534e-05 65.8007 0.371024 66.7968C2.73431 72.9883 14.4531 75.9375 24.121 72.7539C28.3007 71.3867 31.3671 68.5156 31.7577 65.6054C31.8359 65.0976 31.7968 64.5507 31.7187 64.3945C31.582 64.1406 31.4648 64.2773 31.1718 64.9804Z" fill="#41CB52"/>
<path d="M68.2422 64.3359C68.0273 64.8828 68.3203 66.4258 68.8476 67.5195C69.4726 68.75 71.4257 70.625 73.0859 71.5625C75.8984 73.125 79.9414 74.0234 84.1211 74.0234C91.289 74.0234 97.4218 71.3672 99.3554 67.4219C99.8632 66.3672 100.215 64.2578 99.8632 64.2578C99.7656 64.2578 99.4922 64.6484 99.2578 65.1367C97.6562 68.418 92.6953 70.8984 86.4453 71.5039C78.7695 72.2461 70.8593 69.3164 68.8476 65C68.4765 64.2188 68.3398 64.0625 68.2422 64.3359Z" fill="#41CB52"/>
</g>
<defs>
<clipPath id="clip0_15_66">
<rect width="100" height="100" fill="white"/>
</clipPath>
</defs>
</svg>
