<svg width="62" height="64" viewBox="0 0 62 64" fill="none" xmlns="http://www.w3.org/2000/svg">
<g clip-path="url(#clip0_16_96)">
<path d="M23.8926 0.207544C18.7411 1.32138 14.3972 5.6932 13.0466 11.1232C12.6289 12.8079 12.6429 15.4532 13.0606 17.1658C13.4365 18.6694 14.3275 20.5769 15.2743 21.9135C16.0958 23.0691 34.5716 42.255 35.2399 42.6448C35.8107 42.979 37.3562 43.1043 38.0941 42.8676C38.5118 42.7423 39.2219 42.1018 41.2825 39.9855L43.9418 37.2706L44.5544 38.0781C45.9606 39.9716 47.8959 41.7259 49.5806 42.6309C51.0842 43.4524 51.4462 43.5081 52.4626 43.1043C53.7992 42.5613 55.2194 41.5449 56.5978 40.1526C59.0621 37.6882 60.719 34.6252 61.3316 31.409C61.5822 30.1002 61.624 25.0462 61.4012 24.6146C61.3176 24.4614 60.4962 23.9741 59.5773 23.5146C58.4077 22.9299 57.9483 22.6236 58.0179 22.4983C58.0736 22.4147 58.4495 21.8439 58.8394 21.2591C59.7165 19.9643 60.3291 18.5163 60.719 16.8734C61.1366 15.133 61.0392 12.3066 60.5101 10.5245C59.7583 7.99049 58.547 5.94381 56.737 4.1199C55.3725 2.75545 54.2587 1.94791 52.6158 1.18215C50.8197 0.332851 49.9147 0.110083 47.8959 0.0265451C44.2202 -0.126608 41.4913 1.029 38.3308 4.06421L36.8967 5.45651L35.4626 4.06421C33.235 1.90615 31.1465 0.708772 28.6821 0.179698C27.5126 -0.0709159 25.1179 -0.0569929 23.8926 0.207544ZM29.0302 2.49091C30.0884 2.81114 31.4807 3.53514 32.3717 4.18952C32.678 4.42621 33.6944 5.40082 34.6273 6.3615C36.8967 8.72841 36.7575 8.72841 39.0409 6.3615C40.8926 4.44013 41.3938 4.02244 42.7444 3.28452C44.2898 2.43522 45.5011 2.14284 47.339 2.14284C49.2186 2.15676 50.221 2.39345 51.8639 3.20098C55.0941 4.81605 57.7255 8.06011 58.5748 11.4852C58.895 12.8079 58.895 15.4811 58.5609 16.6784C58.1293 18.2378 57.28 19.8807 56.2218 21.1895L55.9016 21.5933L53.7296 20.5212C51.9753 19.658 51.4741 19.463 51.1539 19.5327C50.9311 19.5884 48.6895 20.6883 46.1555 21.9692C42.9811 23.5982 41.5052 24.4196 41.3799 24.6424C41.2407 24.893 41.2128 25.6588 41.2685 27.9004C41.3382 31.1166 41.4495 31.8824 42.2292 33.9569L42.7165 35.2517L40.1547 38.0085C38.7345 39.5122 37.4815 40.7931 37.3701 40.8348C36.9803 40.988 36.5626 40.9184 36.1866 40.6678C35.6158 40.2779 17.8222 21.7046 17.1539 20.7997C16.3742 19.7276 15.7059 18.4188 15.2882 17.1101C15.0098 16.2051 14.968 15.7874 14.9819 14.047C14.9819 12.2231 15.0237 11.9168 15.3718 10.8447C15.5945 10.1903 15.9287 9.34102 16.1236 8.9651C17.7944 5.62358 20.9827 3.03391 24.3103 2.29599C25.6191 2.00361 27.7354 2.08714 29.0302 2.49091ZM55.5674 23.9463L59.4798 25.8955L59.4102 28.3598C59.3684 30.2394 59.271 31.0887 59.0482 31.938C58.6862 33.3303 57.461 35.8226 56.5281 37.0339C55.1219 38.8995 52.3095 41.1968 51.4462 41.1968C50.9729 41.1968 49.4831 40.2362 48.3832 39.2059C46.2669 37.2706 44.5683 34.4999 43.9278 31.9241C43.6215 30.7546 43.5798 30.2673 43.5798 28.2345V25.8815L47.4503 23.9463C49.5666 22.8742 51.3906 21.997 51.488 21.997C51.5716 21.9831 53.4233 22.8603 55.5674 23.9463Z" fill="#41CB52"/>
<path d="M54.1457 28.2483C54.0204 28.3179 53.1432 29.2926 52.2104 30.4064L50.5118 32.4252L49.7182 31.7291C49.0777 31.1722 48.8132 31.0329 48.4094 31.0329C47.8107 31.0329 47.4766 31.4228 47.4766 32.105C47.4766 32.4948 47.6158 32.6758 48.5626 33.4834C50.47 35.1263 50.7624 35.2237 51.5421 34.4023C52.4331 33.4834 55.4405 29.8634 55.5937 29.5432C55.9557 28.7356 54.9114 27.8028 54.1457 28.2483Z" fill="#41CB52"/>
<path d="M14.8001 43.2853C13.6724 43.5776 12.9484 43.9257 11.8067 44.6915C11.3751 44.9978 10.9852 45.2345 10.9435 45.2345C10.8878 45.2345 10.8599 44.956 10.8599 44.6219C10.8599 43.146 10.8739 43.146 5.42997 43.146C0.751842 43.146 0.306306 43.2017 0.083538 43.7726C0.041769 43.8979 0 48.3393 0 53.644V63.2926L0.320229 63.585C0.640458 63.8913 0.710073 63.8913 5.44389 63.8913H10.2612L10.5536 63.5711C10.7625 63.3622 10.8599 63.0698 10.8599 62.7218C10.8599 62.2205 10.8739 62.2066 11.2498 62.2762C12.6838 62.5686 20.9402 63.7799 22.4717 63.9191C26.4537 64.2811 30.1711 63.4318 34.0974 61.2877C34.7518 60.9257 38.4832 59.1436 42.3816 57.3196C46.28 55.4957 49.6912 53.8389 49.9557 53.63C50.6379 53.1149 51.0974 52.0568 51.0974 50.9986C51.0974 48.3532 48.3406 46.2509 45.5003 46.7521C45.013 46.8356 41.95 47.8799 38.7059 49.0633C35.4619 50.2468 32.7886 51.2214 32.7747 51.2214C32.7608 51.2214 32.719 50.8176 32.6912 50.3303C32.552 48.7292 31.5495 47.2951 30.004 46.5154C29.6838 46.3622 28.3194 46.0002 26.941 45.7218C24.6576 45.2623 24.3095 45.1509 22.7641 44.3852C21.8452 43.9396 20.5921 43.4384 19.9934 43.2853C18.5315 42.9233 16.2064 42.9233 14.8001 43.2853ZM20.0352 45.6522C20.5364 45.8193 21.4693 46.223 22.1236 46.5432C23.6691 47.3229 24.2956 47.5179 26.6625 47.9495C28.8763 48.3672 29.3497 48.5482 29.9344 49.2165C30.8116 50.2189 30.742 51.7783 29.7674 52.6972C28.8067 53.6161 28.6396 53.63 24.4488 52.9757C22.4021 52.6554 21.3022 52.5301 21.0794 52.6137C20.6896 52.7668 20.4668 53.1567 20.4668 53.6997C20.4668 54.4654 20.7592 54.5768 24.407 55.1477C26.2588 55.4261 27.9991 55.6767 28.2776 55.6767C29.0851 55.6767 30.0876 55.3008 30.8951 54.6882C31.5356 54.2009 32.8304 53.6579 38.5945 51.4859C44.8738 49.1051 45.5978 48.8545 46.3775 48.8545C47.0458 48.8545 47.3799 48.938 47.8394 49.2025C48.8975 49.8151 49.3292 51.3328 48.6191 51.9454C48.4938 52.0707 45.2776 53.6161 41.4905 55.3983C37.7035 57.1804 33.9999 58.9765 33.276 59.3802C31.7583 60.2295 29.6142 61.1206 28.027 61.5522C27.0802 61.8168 26.5651 61.8585 24.1564 61.8585C21.4414 61.8725 21.2465 61.8446 16.2481 61.0649C13.4357 60.6333 11.0688 60.2713 10.9992 60.2713C10.9156 60.2713 10.8599 58.0436 10.8739 54.173V48.0887L12.1548 47.1698C13.6863 46.0699 14.3546 45.7079 15.4267 45.4433C16.5544 45.1509 18.8657 45.2623 20.0352 45.6522ZM8.77149 53.7275V61.9421H5.42997H2.08845V53.7275V45.5129H5.42997H8.77149V53.7275Z" fill="#41CB52"/>
</g>
<defs>
<clipPath id="clip0_16_96">
<rect width="62" height="64" fill="white"/>
</clipPath>
</defs>
</svg>
