<svg width="101" height="101" viewBox="0 0 101 101" fill="none" xmlns="http://www.w3.org/2000/svg">
<path d="M31.1338 35.95C28.4048 35.95 26.1838 38.171 26.1838 40.9C26.1838 43.629 28.4038 45.8499 31.1338 45.8499C33.8638 45.8499 36.0838 43.63 36.0838 40.9C36.0838 38.17 33.8628 35.95 31.1338 35.95ZM31.1338 42.8499C30.0588 42.8499 29.1838 41.975 29.1838 40.9C29.1838 39.825 30.0588 38.95 31.1338 38.95C32.2088 38.95 33.0838 39.825 33.0838 40.9C33.0838 41.975 32.2088 42.8499 31.1338 42.8499Z" fill="white"/>
<path d="M54.117 28.151C45.307 27.7 41.655 31.173 41.504 31.322C40.919 31.897 40.912 32.829 41.48 33.422C42.046 34.015 42.993 34.034 43.594 33.475C43.622 33.448 46.59 30.763 53.963 31.147C60.65 31.492 64.169 34.63 64.198 34.657C64.487 34.926 64.853 35.059 65.219 35.059C65.62 35.059 66.022 34.898 66.318 34.58C66.881 33.974 66.847 33.024 66.241 32.46C66.07 32.301 61.958 28.555 54.117 28.151Z" fill="white"/>
<path d="M96.827 29.136C94.742 28.77 89.755 28.194 88.431 30.737C87.376 32.764 89.231 34.975 90.718 36.462C91.998 37.743 92.321 38.433 92.401 38.69C91.781 39.023 89.77 39.065 87.847 38.801C81.721 27.827 67.607 20.126 51.209 20.126C47.2049 20.126 43.2299 20.597 39.3769 21.528C36.9649 17.369 31.547 14.653 25.422 14.653C24.593 14.653 23.922 15.324 23.922 16.153V28.519C20.408 31.073 17.58 34.001 15.498 37.239H9.68595C6.10995 37.239 3.19995 40.39 3.19995 44.263V49.561C3.19995 59.082 16.455 68.346 21.565 71.803L24.398 85.761C24.54 86.459 25.155 86.962 25.868 86.962H33.254C33.949 86.962 34.553 86.484 34.713 85.808L36.1609 79.7C41.2589 81.535 45.5059 81.904 51.209 81.904C56.47 81.904 60.2179 81.596 64.9769 80.019L66.4929 85.841C66.6649 86.502 67.262 86.963 67.944 86.963H75.33C76.033 86.963 76.642 86.475 76.795 85.788L79.679 72.781C87.473 66.919 91.107 59.988 91.107 51.013C91.107 47.866 90.492 44.829 89.358 41.967C89.639 41.982 89.924 41.993 90.214 41.993C92.226 41.993 94.336 41.589 95.129 40.065C96.183 38.039 94.328 35.827 92.842 34.34C91.561 33.058 91.239 32.369 91.159 32.112C91.841 31.745 94.226 31.726 96.31 32.09C97.129 32.23 97.903 31.687 98.046 30.871C98.188 30.056 97.643 29.279 96.827 29.136ZM77.449 70.698C77.155 70.914 76.949 71.228 76.87 71.584L74.125 83.962H69.103L67.469 77.684C67.363 77.274 67.0869 76.927 66.7109 76.732C66.3329 76.536 65.893 76.508 65.495 76.656C60.918 78.357 57.4469 78.903 51.209 78.903C45.2899 78.903 41.0589 78.487 35.6619 76.295C35.2569 76.129 34.8 76.15 34.41 76.352C34.021 76.552 33.739 76.914 33.638 77.339L32.068 83.962H27.094L24.3829 70.605C24.3039 70.22 24.078 69.88 23.752 69.661C12.105 61.804 6.19995 55.041 6.19995 49.56V44.262C6.19995 42.043 7.76395 40.238 9.68595 40.238H15.919L16.062 40.237C16.105 40.236 16.146 40.233 16.189 40.237C16.764 40.299 17.319 40.011 17.616 39.515C19.633 36.152 22.548 33.126 26.281 30.521C26.683 30.241 26.923 29.781 26.923 29.291V17.718C31.703 18.139 35.809 20.546 37.194 23.858C37.483 24.55 38.242 24.92 38.966 24.728C42.936 23.665 47.0549 23.126 51.2109 23.126C71.5559 23.126 88.107 35.636 88.107 51.013C88.105 59.234 84.819 65.305 77.449 70.698Z" fill="white"/>
</svg>
