<svg width="101" height="101" viewBox="0 0 101 101" fill="none" xmlns="http://www.w3.org/2000/svg">
<path d="M53.3781 5.48901C34.6601 5.48901 19.4321 20.718 19.4321 39.438C19.4321 40.703 19.5011 41.97 19.6381 43.215C17.1731 45.925 10.0061 54.487 13.7451 58.601C14.4971 59.43 17.7421 61.583 20.0921 62.469L20.0761 66.66C20.0761 75.531 26.1771 84.96 37.4341 84.959L43.6901 85.166V93.01C43.6901 93.838 44.3611 94.51 45.1901 94.51C46.0191 94.51 46.6901 93.838 46.6901 93.01V83.715C46.6901 82.905 46.0481 82.242 45.2401 82.216L37.4841 81.96C28.0251 81.96 23.0761 74.263 23.0761 66.666L23.0961 61.415C23.0961 61.315 23.0871 61.215 23.0671 61.114C22.9381 60.469 22.4091 59.997 21.7801 59.92C20.8731 59.606 17.1441 57.883 15.9661 56.584C14.9761 55.495 16.6271 50.777 22.3021 44.752C22.6111 44.424 22.7561 43.975 22.6981 43.528C22.5221 42.188 22.4331 40.812 22.4331 39.437C22.4331 22.372 36.3151 8.48801 53.3791 8.48801C70.4461 8.48801 84.3321 22.372 84.3321 39.437C84.3321 48.298 80.5201 56.748 73.8741 62.619C73.5521 62.903 73.3671 63.312 73.3671 63.742L73.3461 92.835C73.3451 93.663 74.0171 94.335 74.8451 94.336C75.6731 94.336 76.3451 93.665 76.3461 92.837L76.3671 64.411C83.3441 57.993 87.3321 48.931 87.3321 39.437C87.3311 20.718 72.1001 5.48901 53.3781 5.48901Z" fill="white"/>
<path d="M53.4732 20.24C42.4622 20.24 33.5032 29.191 33.5032 40.193C33.5032 41.022 34.1742 41.693 35.0032 41.693C35.8322 41.693 36.5032 41.022 36.5032 40.193C36.5032 30.845 44.1162 23.24 53.4732 23.24C62.8272 23.24 70.4362 30.845 70.4362 40.193C70.4362 45.319 68.2662 50.12 64.6312 53.036C62.4802 54.763 58.8592 56.583 53.8322 55.467C46.1032 53.746 45.5032 45.965 45.5032 43.62C45.5032 38.748 49.3392 34.777 54.0802 34.709C54.1582 34.722 54.2382 34.728 54.3182 34.728C56.9862 34.728 59.1562 36.898 59.1562 39.565C59.1562 42.237 56.9862 44.41 54.3182 44.41C53.4902 44.41 52.8182 45.081 52.8182 45.91C52.8182 46.739 53.4902 47.41 54.3182 47.41C58.6402 47.41 62.1562 43.89 62.1562 39.565C62.1562 35.29 58.7142 31.803 54.4552 31.729C54.3722 31.715 54.2882 31.708 54.2042 31.708C47.7522 31.708 42.5032 37.052 42.5032 43.62C42.5032 49.614 45.3082 56.642 53.1812 58.394C54.4042 58.666 55.6192 58.8 56.8162 58.8C60.3452 58.8 63.6972 57.631 66.5082 55.376C70.8462 51.896 73.4362 46.22 73.4362 40.192C73.4362 29.191 64.4802 20.24 53.4732 20.24Z" fill="white"/>
</svg>
