<svg width="101" height="101" viewBox="0 0 101 101" fill="none" xmlns="http://www.w3.org/2000/svg">
<path d="M50.22 56.6899C47.5726 56.6979 44.978 57.431 42.7179 58.8096C40.4578 60.1883 38.6186 62.1597 37.4 64.5099C37.2347 64.8592 37.2106 65.2587 37.3327 65.6253C37.4547 65.9919 37.7135 66.2973 38.0552 66.4777C38.3968 66.6582 38.7949 66.6999 39.1665 66.5942C39.5381 66.4884 39.8546 66.2433 40.05 65.9099C40.991 64.0654 42.4166 62.512 44.1738 61.4166C45.9309 60.3211 47.9533 59.7249 50.0237 59.692C52.0941 59.6591 54.1344 60.1908 55.9255 61.2299C57.7166 62.2689 59.1908 63.7763 60.19 65.5899C60.3862 65.936 60.7119 66.19 61.0954 66.296C61.479 66.4019 61.8889 66.3512 62.235 66.1549C62.5811 65.9587 62.835 65.633 62.941 65.2495C63.047 64.8659 62.9962 64.4561 62.8 64.1099C61.5439 61.8734 59.7186 60.009 57.5092 58.7058C55.2998 57.4026 52.785 56.7072 50.22 56.6899Z" fill="white"/>
<path d="M50.06 55.13C52.0493 55.13 53.9939 54.5403 55.648 53.4353C57.3021 52.3303 58.5916 50.7598 59.3533 48.9221C60.115 47.0845 60.3148 45.0623 59.9274 43.1111C59.5401 41.1599 58.5829 39.3674 57.177 37.9601C55.7711 36.5527 53.9795 35.5938 52.0287 35.2045C50.0779 34.8152 48.0555 35.013 46.2171 35.7729C44.3787 36.5328 42.8069 37.8207 41.7003 39.4737C40.5937 41.1267 40.002 43.0708 40 45.06C40.0026 47.7282 41.0631 50.2865 42.9488 52.1741C44.8346 54.0618 47.3918 55.1247 50.06 55.13ZM50.06 38C51.4563 38 52.8213 38.4141 53.9823 39.1898C55.1433 39.9656 56.0482 41.0682 56.5826 42.3583C57.1169 43.6483 57.2568 45.0678 56.9843 46.4374C56.7119 47.8069 56.0395 49.0648 55.0522 50.0522C54.0648 51.0395 52.8068 51.7119 51.4373 51.9844C50.0678 52.2568 48.6483 52.117 47.3583 51.5826C46.0682 51.0482 44.9656 50.1434 44.1898 48.9823C43.4141 47.8213 43 46.4564 43 45.06C43.0026 43.1884 43.7473 41.3942 45.0707 40.0708C46.3942 38.7473 48.1884 38.0027 50.06 38Z" fill="white"/>
<path d="M88.5 22.0001H52.12L67.56 6.56006C67.825 6.27571 67.9692 5.89962 67.9623 5.51101C67.9555 5.12241 67.7981 4.75164 67.5232 4.47682C67.2484 4.20199 66.8776 4.04457 66.489 4.03771C66.1004 4.03085 65.7244 4.1751 65.44 4.44006L49.5 20.3801L38.56 9.44006C38.2757 9.1751 37.8996 9.03085 37.511 9.03771C37.1224 9.04457 36.7516 9.20199 36.4768 9.47682C36.2019 9.75164 36.0445 10.1224 36.0377 10.511C36.0308 10.8996 36.175 11.2757 36.44 11.5601L46.88 22.0001H12.5C12.1022 22.0001 11.7206 22.1581 11.4393 22.4394C11.158 22.7207 11 23.1022 11 23.5001V78.5001C11 78.8979 11.158 79.2794 11.4393 79.5607C11.7206 79.842 12.1022 80.0001 12.5 80.0001H88.5C88.8978 80.0001 89.2794 79.842 89.5607 79.5607C89.842 79.2794 90 78.8979 90 78.5001V23.5001C90 23.1022 89.842 22.7207 89.5607 22.4394C89.2794 22.1581 88.8978 22.0001 88.5 22.0001ZM87 77.0001H14V25.0001H87V77.0001Z" fill="white"/>
<path d="M19.5 72H81.5C81.8978 72 82.2794 71.842 82.5607 71.5607C82.842 71.2794 83 70.8978 83 70.5V30.5C83 30.1022 82.842 29.7206 82.5607 29.4393C82.2794 29.158 81.8978 29 81.5 29H19.5C19.1022 29 18.7206 29.158 18.4393 29.4393C18.158 29.7206 18 30.1022 18 30.5V70.5C18 70.8978 18.158 71.2794 18.4393 71.5607C18.7206 71.842 19.1022 72 19.5 72ZM21 32H80V69H21V32Z" fill="white"/>
</svg>
