<svg width="30" height="26" viewBox="0 0 30 26" fill="none" xmlns="http://www.w3.org/2000/svg">
<g clip-path="url(#clip0_35_33)">
<path d="M26.9162 8.0723C26.9352 8.33879 26.9353 8.60533 26.9353 8.87181C26.9353 17 20.7487 26.3655 9.44162 26.3655C5.9581 26.3655 2.72209 25.3565 0 23.6053C0.494941 23.6624 0.970781 23.6815 1.48477 23.6815C4.35908 23.6815 7.00506 22.7107 9.11801 21.0546C6.41496 20.9975 4.14973 19.2272 3.36926 16.7906C3.75 16.8477 4.13068 16.8858 4.53047 16.8858C5.08248 16.8858 5.63455 16.8096 6.14848 16.6764C3.33123 16.1053 1.21822 13.6307 1.21822 10.6421V10.566C2.03672 11.0229 2.98857 11.3084 3.99738 11.3464C2.34129 10.2423 1.25631 8.35783 1.25631 6.22584C1.25631 5.08373 1.56082 4.03677 2.09385 3.12306C5.12051 6.85402 9.67002 9.29053 14.7715 9.55707C14.6763 9.10021 14.6192 8.62437 14.6192 8.14847C14.6192 4.76011 17.3603 2 20.7677 2C22.538 2 24.1369 2.74238 25.2601 3.94162C26.6496 3.67513 27.9821 3.16115 29.1623 2.45685C28.7054 3.88455 27.7346 5.08379 26.4593 5.84515C27.6966 5.71197 28.8959 5.36925 29.9999 4.89341C29.1625 6.11164 28.1154 7.19662 26.9162 8.0723Z" fill="white"/>
</g>
<defs>
<clipPath id="clip0_35_33">
<rect width="30" height="26" fill="white"/>
</clipPath>
</defs>
</svg>
