<svg width="101" height="101" viewBox="0 0 101 101" fill="none" xmlns="http://www.w3.org/2000/svg">
<path d="M93.4519 6.66397C92.8659 6.07897 91.9169 6.07897 91.3309 6.66397L73.2289 24.772L70.9729 22.517C70.6919 22.236 70.3099 22.078 69.9119 22.078C69.5139 22.078 69.1329 22.236 68.8509 22.518L62.8369 28.536L58.2589 23.957C57.9779 23.676 57.5959 23.518 57.1979 23.518C56.7999 23.518 56.4189 23.676 56.1369 23.957L49.6559 30.438C49.6529 30.441 49.6499 30.441 49.6469 30.444C49.6439 30.447 49.6439 30.45 49.6409 30.453L41.1079 38.987C41.1029 38.992 41.0969 38.993 41.0919 38.997C41.0869 39.001 41.0859 39.008 41.0819 39.013L32.5609 47.534C32.5549 47.54 32.5469 47.541 32.5419 47.547C32.5369 47.553 32.5349 47.56 32.5289 47.566L24.0129 56.082C24.0059 56.089 23.9969 56.09 23.9899 56.097C23.9829 56.104 23.9809 56.113 23.9749 56.12L17.2099 62.885C16.9289 63.166 16.7709 63.548 16.7709 63.946C16.7709 64.343 16.9289 64.725 17.2099 65.007L21.7889 69.585L13.6869 77.685L9.10689 73.104C8.52089 72.518 7.57189 72.518 6.98589 73.104C6.39989 73.69 6.39989 74.639 6.98589 75.225L19.2479 87.488C19.2499 87.49 19.2509 87.493 19.2529 87.496C19.2549 87.499 19.2579 87.499 19.2609 87.501L25.0939 93.335C25.3869 93.628 25.7709 93.774 26.1549 93.774C26.5389 93.774 26.9229 93.628 27.2159 93.335C27.8019 92.749 27.8019 91.8 27.2159 91.214L22.4349 86.435L30.5389 78.334L35.1209 82.916C35.4139 83.209 35.7979 83.355 36.1819 83.355C36.5659 83.355 36.9499 83.209 37.2429 82.916L76.1659 43.988C76.7519 43.402 76.7519 42.453 76.1659 41.867L71.5889 37.29L77.6029 31.265C78.1879 30.679 78.1869 29.73 77.6019 29.144L75.3499 26.894L93.4519 8.78497C94.0379 8.19897 94.0379 7.24897 93.4519 6.66397ZM20.3139 84.313L15.8069 79.806L23.9089 71.705L28.4159 76.212L20.3139 84.313ZM36.1819 79.733L24.9799 68.533C24.9769 68.53 24.9759 68.525 24.9729 68.522C24.9699 68.519 24.9649 68.518 24.9619 68.515L20.3919 63.946L25.0549 59.283L30.7049 64.931C30.9979 65.224 31.3819 65.37 31.7659 65.37C32.1499 65.37 32.5339 65.224 32.8269 64.931C33.4119 64.345 33.4119 63.395 32.8269 62.81L27.1769 57.162L33.6069 50.732L39.2529 56.378C39.5459 56.671 39.9299 56.817 40.3139 56.817C40.6979 56.817 41.0819 56.671 41.3749 56.378C41.9609 55.792 41.9609 54.842 41.3749 54.257L35.7289 48.611L42.1589 42.181L47.8109 47.828C48.1039 48.121 48.4869 48.267 48.8709 48.267C49.2549 48.267 49.6389 48.121 49.9319 47.827C50.5169 47.241 50.5169 46.291 49.9309 45.706L44.2799 40.06L50.7119 33.628L56.3589 39.276C56.6509 39.569 57.0359 39.715 57.4199 39.715C57.8039 39.715 58.1879 39.569 58.4809 39.276C59.0669 38.691 59.0669 37.741 58.4809 37.155L52.8339 31.507L57.2009 27.139L61.7719 31.711C61.7749 31.714 61.7749 31.717 61.7779 31.719L68.4099 38.35L68.4129 38.353L72.9859 42.927L36.1819 79.733ZM69.4679 35.167L64.9589 30.657L69.9129 25.699L72.1619 27.947C72.1639 27.949 72.1649 27.953 72.1669 27.955C72.1689 27.957 72.1729 27.958 72.1749 27.96L74.4209 30.205L69.4679 35.167Z" fill="white"/>
</svg>
