<svg width="37" height="24" viewBox="0 0 37 24" fill="none" xmlns="http://www.w3.org/2000/svg">
<g clip-path="url(#clip0_35_31)">
<path d="M36.3485 3.52049C35.945 2.13475 34.7563 1.04338 33.2469 0.67301C30.5111 0 19.5408 0 19.5408 0C19.5408 0 8.57052 0 5.83464 0.67301C4.32528 1.04344 3.13653 2.13475 2.73306 3.52049C2 6.03223 2 11.2727 2 11.2727C2 11.2727 2 16.5132 2.73306 19.025C3.13653 20.4107 4.32528 21.4566 5.83464 21.827C8.57052 22.5 19.5408 22.5 19.5408 22.5C19.5408 22.5 30.511 22.5 33.2469 21.827C34.7563 21.4566 35.945 20.4107 36.3485 19.025C37.0816 16.5132 37.0816 11.2727 37.0816 11.2727C37.0816 11.2727 37.0816 6.03223 36.3485 3.52049ZM15.9529 16.0307V6.51475L25.1219 11.2729L15.9529 16.0307Z" fill="white"/>
</g>
<defs>
<clipPath id="clip0_35_31">
<rect width="37" height="24" fill="white"/>
</clipPath>
</defs>
</svg>
